<svg id="Layer_1" data-name="Layer 1" xmlns="http://www.w3.org/2000/svg" viewBox="0 0 203.13 152.76"><defs><style>.cls-1{fill:none;stroke:#eb6578;stroke-linecap:round;stroke-linejoin:round;stroke-width:4.11px;}</style></defs><title>evolution assets3</title><g id="_Group_" data-name="&lt;Group&gt;"><g id="_Group_2" data-name="&lt;Group&gt;"><path id="_Path_" data-name="&lt;Path&gt;" class="cls-1" d="M201.08,45.7L159.57,87.21,136.89,64.54A10.25,10.25,0,1,0,122.39,79a10.25,10.25,0,0,0-14.5,14.5A10.25,10.25,0,0,0,93.39,108a10.25,10.25,0,0,0-14.55,14.45l0.05,0.05,22.68,22.67-2.5,2.49a10.25,10.25,0,1,1-14.5-14.5,10.25,10.25,0,0,1-14.5-14.49,10.26,10.26,0,0,1-14.31.19l-0.19-.19-0.18-.19a10.26,10.26,0,0,1,.18-14.32,10.26,10.26,0,0,1-14.31.19l-0.19-.19L40.89,104a10.26,10.26,0,0,1,.18-14.32l2.5-2.5L66.24,64.54l21-21,7.18,7.17a15.88,15.88,0,0,0,22.46,0L120,47.62l-18.4-18.4,11.54-11.55a9.71,9.71,0,0,1,13.73,0l1.87,1.87a8,8,0,0,0,11.24,0L157.43,2.06Z"/></g><g id="_Group_3" data-name="&lt;Group&gt;"><path id="_Path_2" data-name="&lt;Path&gt;" class="cls-1" d="M120,47.62l-3.12,3.12a15.88,15.88,0,0,1-22.46,0l-7.18-7.17-21,21L43.57,87.21,2.06,45.7,45.7,2.06,63.18,19.53a8,8,0,0,0,11.24,0l1.87-1.87a9.71,9.71,0,0,1,13.73,0Z"/><path id="_Path_3" data-name="&lt;Path&gt;" class="cls-1" d="M162.25,104l-0.19.19a10.26,10.26,0,0,1-14.5,0l-2.5-2.5L122.39,79a10.25,10.25,0,1,1,14.5-14.5l25.17,25.17A10.27,10.27,0,0,1,162.25,104Z"/><path id="_Path_4" data-name="&lt;Path&gt;" class="cls-1" d="M147.75,118.53l-0.19.19-0.19.19a10.27,10.27,0,0,1-14.32-.19L107.89,93.54A10.25,10.25,0,0,1,122.39,79l22.67,22.67,2.5,2.5A10.27,10.27,0,0,1,147.75,118.53Z"/><path id="_Path_5" data-name="&lt;Path&gt;" class="cls-1" d="M133.06,133.2a10.24,10.24,0,0,1-14.5,0l-2.49-2.49L93.39,108a10.25,10.25,0,1,1,14.5-14.5l25.17,25.17A10.24,10.24,0,0,1,133.06,133.2Z"/><path id="_Path_6" data-name="&lt;Path&gt;" class="cls-1" d="M118.56,147.71a10.26,10.26,0,0,1-14.5,0l-2.49-2.49L78.89,122.54l-0.05-.05A10.25,10.25,0,0,1,93.39,108l22.68,22.67,2.49,2.49A10.25,10.25,0,0,1,118.56,147.71Z"/><line id="_Path_7" data-name="&lt;Path&gt;" class="cls-1" x1="87.21" y1="43.57" x2="85.96" y2="42.31"/></g></g></svg>