<svg id="Layer_1" data-name="Layer 1" xmlns="http://www.w3.org/2000/svg" viewBox="0 0 1169.9 109.08"><defs><style>.cls-1{opacity:0.4;}.cls-2{fill:#fff;}</style></defs><title>svg logofile</title><g id="J2lnQ7.tif" class="cls-1"><path class="cls-2" d="M1073.92,19.87c-0.3,0-.32-0.19-0.27-0.45-0.3,0-.54,0-0.43-0.41-0.39-.06-0.39-0.06-0.46-0.46-0.35.1-.44-0.09-0.39-0.4-0.39,0-.39,0-0.46-0.43-0.39,0-.39,0-0.44-0.47-0.43.19-.35-0.18-0.41-0.42-0.39.11-.4-0.16-0.42-0.43-0.39.12-.44-0.12-0.41-0.44-0.45.18-.41-0.14-0.45-0.39a0.33,0.33,0,0,1-.42-0.41c-0.39,0-.39,0-0.45-0.46-0.36.1-.43-0.11-0.39-0.4-0.42,0-.42,0-0.44-0.43-0.33.07-.44-0.12-0.41-0.45-0.33.05-.49-0.08-0.41-0.43-0.45.16-.42-0.16-0.46-0.42-0.33.06-.44-0.12-0.41-0.4-0.37-.05-0.37-0.05-0.44-0.38a0.82,0.82,0,0,1-.33-0.11,0.44,0.44,0,0,0-.42-0.44,1.05,1.05,0,0,1-.12-0.38c-0.35.1-.42-0.12-0.38-0.45-0.44.16-.42-0.14-0.46-0.4-0.32.06-.46-0.09-0.4-0.44-0.39.11-.48-0.08-0.43-0.41-0.26,0-.43,0-0.45-0.3a0.19,0.19,0,0,0-.33-0.06,0.41,0.41,0,0,1-.5.23H1041.7a0.91,0.91,0,0,1-.24,0,1,1,0,0,1-.22-0.14,0.51,0.51,0,0,0-.2-0.13,0.29,0.29,0,0,0-.19.2,0.2,0.2,0,0,1-.24.21,0.16,0.16,0,0,0-.2.23c0,0.15,0,.22-0.18.21s-0.2.09-.27,0.22a4.42,4.42,0,0,1-.56.65,0.09,0.09,0,0,1-.05,0,0.35,0.35,0,0,0-.23.21c-0.21.2-.39,0.44-0.62,0.62s-0.42.44-.64,0.65a4.87,4.87,0,0,1-.62.6,0.45,0.45,0,0,0-.27.27,0.25,0.25,0,0,1-.09.15,0.34,0.34,0,0,0-.35.38,1.22,1.22,0,0,0-.53.45,2.65,2.65,0,0,0-.36.37,4.15,4.15,0,0,1-.51.49,0.6,0.6,0,0,0-.33.35,0.14,0.14,0,0,1-.09.09,0.35,0.35,0,0,0-.31.46,0.33,0.33,0,0,0-.42.43c-0.25,0-.47,0-0.42.3a0.14,0.14,0,0,1-.09.1,0.34,0.34,0,0,0-.38.33,0.14,0.14,0,0,1-.08.09,0.32,0.32,0,0,0-.32.34,0.91,0.91,0,0,0-.38.26,0.28,0.28,0,0,1-.38.26,0.85,0.85,0,0,1-.19.4,0.37,0.37,0,0,0-.32.46c-0.25,0-.43,0-0.43.31a0.26,0.26,0,0,1-.2.11,0.18,0.18,0,0,0-.22.22,0.17,0.17,0,0,1-.21.22,0.28,0.28,0,0,0-.2.18c0,0.23-.07.26-0.26,0.24a0.24,0.24,0,0,0-.16.16,0.31,0.31,0,0,0,.11.23,1.29,1.29,0,0,1,.68.54,4.18,4.18,0,0,1,.68.7L1032,22.2a1.15,1.15,0,0,1,.47.54,0.56,0.56,0,0,0,.09.05c0.22,0.19.45,0.37,0.65,0.57s0.39,0.44.59,0.65,0.28,0.28.42,0.41a3.67,3.67,0,0,1,.66.63,1.43,1.43,0,0,1,.53.64,0.16,0.16,0,0,0,.09.06,2.68,2.68,0,0,1,.73.67,1.42,1.42,0,0,1,.5.56,0.75,0.75,0,0,0,.09,0l0.26,0.27a0.44,0.44,0,0,0,.14.15c0.54,0.16.64,0.79,1.11,1a0.37,0.37,0,0,1,0,.1,0.57,0.57,0,0,0,.1.12c0.11,0.1.24,0.19,0.35,0.29a2.88,2.88,0,0,0,.48.49,0.74,0.74,0,0,1,.36.4,0.59,0.59,0,0,0,.19.13l0.62,0.55a0,0,0,0,1,0,0,0.33,0.33,0,0,0,.33.33,3.89,3.89,0,0,0,.29.37,0.27,0.27,0,0,0,.19-0.05c0-.33.22-0.26,0.4-0.26h20.93l0.19,0.3a2.91,2.91,0,0,0,.28-0.22,1.44,1.44,0,0,0,.52-0.58,0.45,0.45,0,0,1,.16-0.07l0.12-.09,0.38-.36,0.07,0.06c0-.22,0-0.4.32-0.39a0.16,0.16,0,0,0,.11-0.09c0-.31.18-0.37,0.43-0.36-0.1-.45.52-0.43,0.5-0.82l0.13,0,0.21,0q0-.2,0-0.37a0.58,0.58,0,0,0,.24-0.07,0.94,0.94,0,0,1,.53-0.49,0.38,0.38,0,0,1,.36-0.38,0.17,0.17,0,0,0,.1-0.12,0.31,0.31,0,0,1,.35-0.31,0.84,0.84,0,0,1,.2-0.35,0.39,0.39,0,0,0,.37-0.43l0.37-.06c0-.13,0-0.24.05-0.37l0.38-.06a0.68,0.68,0,0,1,0-.3,2.17,2.17,0,0,0,.49-0.47,0.65,0.65,0,0,0,.37-0.46c0.25,0,.45,0,0.41-0.29a0.15,0.15,0,0,1,0-.07,0.77,0.77,0,0,0,.55-0.48,0.64,0.64,0,0,1,.28-0.08c-0.15-.26,0-0.32.19-0.37a0.33,0.33,0,0,0,.22-0.18c0.05-.35.52-0.32,0.57-0.66h0.05a4.92,4.92,0,0,0,.65-0.62,0.72,0.72,0,0,1,.25-0.25,5.41,5.41,0,0,1,.58-0.56,0.56,0.56,0,0,0,.06-0.28,0.65,0.65,0,0,0,.23,0,0.24,0.24,0,0,0,.15-0.13A0.3,0.3,0,0,0,1073.92,19.87Zm-22.64.39a0.64,0.64,0,0,0-.22.21,0.23,0.23,0,0,1-.23.23,0.26,0.26,0,0,0-.19.16,0.26,0.26,0,0,1-.25.26,0.29,0.29,0,0,0-.17.21c0,0.18,0,.27-0.24.24a0.43,0.43,0,0,0-.21.14s0,0.06,0,.08a1.16,1.16,0,0,0-.38.29c-0.08.14,0,.36-0.28,0.33a0.4,0.4,0,0,0-.17.19,0.43,0.43,0,0,0,0,.1,1.89,1.89,0,0,0-.63.55,0.42,0.42,0,0,1-.12,0c0,0.42-.67.35-0.53,0.84-0.27,0-.47,0-0.45.32a0.19,0.19,0,0,1-.15.1,0.21,0.21,0,0,0-.26.24,0.3,0.3,0,0,1-.22.19,0.19,0.19,0,0,0-.21.21,0.2,0.2,0,0,1-.23.22,0.46,0.46,0,0,0-.19.2,0.67,0.67,0,0,1-.14.21c-0.28,0-.31.13-0.28,0.35a0.34,0.34,0,0,1,0,.1c-0.31-.08-0.49,0-0.4.4-0.26,0-.48,0-0.46.33a0.29,0.29,0,0,1-.17.09,0.21,0.21,0,0,0-.23.27c0,0.15,0,.22-0.2.19a0.18,0.18,0,0,0-.25.21c0,0.14,0,.23-0.2.2a0.17,0.17,0,0,0-.22.2,0.18,0.18,0,0,1-.2.22,0.19,0.19,0,0,0-.23.23,0.19,0.19,0,0,1-.23.22c-0.13,0-.21,0-0.19.18a0.17,0.17,0,0,1-.2.23,0.18,0.18,0,0,0-.22.22,0.17,0.17,0,0,1-.2.21,0.2,0.2,0,0,0-.25.23,0.3,0.3,0,0,1-.14.19c-0.13.08-.27,0.15-0.45,0.25a1.46,1.46,0,0,1,0-.28c0-.69,0-1.39,0-2.08,0-1,0-2.06,0-3.09s0-1.91,0-2.87c0-1.23,0-2.47,0-3.7V10.11c0-.12,0-0.25,0-0.38,0.2,0.11.37,0.19,0.52,0.28a0.33,0.33,0,0,1,.09.18,0.25,0.25,0,0,0,.27.23,0.24,0.24,0,0,1,.17.16,0.22,0.22,0,0,0,.23.26,0.23,0.23,0,0,1,.24.24,0.47,0.47,0,0,0,.16.2s0.09,0,.1,0a1.36,1.36,0,0,0,.23.36,0.56,0.56,0,0,1,.34.25,1.86,1.86,0,0,0,.6.62c0.11,0.08.26,0.08,0.25,0.28a0.21,0.21,0,0,0,.13.15,0.31,0.31,0,0,1,.28.26c0.07,0.12.28,0.15,0.37,0.27s0,0.34.29,0.33a0.29,0.29,0,0,1,.19.2,0.23,0.23,0,0,0,.24.25,0.29,0.29,0,0,1,.2.2c0,0.14.06,0.22,0.21,0.21a0.15,0.15,0,0,1,.1,0c0.18,0.21.35,0.43,0.53,0.63a2.86,2.86,0,0,0,.23.19,1.8,1.8,0,0,1,.2.2s0,0.09,0,.1a7.24,7.24,0,0,0,.67.58,0.44,0.44,0,0,1,.16.16,0.54,0.54,0,0,0,0,.1,2.08,2.08,0,0,1,.4.25c0.09,0.1,0,.35.27,0.34a0.55,0.55,0,0,1,.2.22,0.62,0.62,0,0,0,.2.22,0.23,0.23,0,0,1,.23.23,0.28,0.28,0,0,0,.2.18c0.17,0,.27.06,0.26,0.26a0.31,0.31,0,0,0,.14.16,0.39,0.39,0,0,0,.12,0,4.23,4.23,0,0,0,.53.65c0.07,0.27.31,0.13,0.42,0.25s-0.06.37,0.23,0.38a0.73,0.73,0,0,1,.29.25Zm11.39,9.86a0.59,0.59,0,0,1-.55-0.22,2.59,2.59,0,0,0-.71-0.67,0.31,0.31,0,0,1-.11-0.12s0-.12,0-0.13c-0.28-.12-0.37-0.46-0.64-0.59l0,0a2.2,2.2,0,0,0-.62-0.63,0.22,0.22,0,0,0,0,0,2.66,2.66,0,0,0-.69-0.62,0.24,0.24,0,0,1-.12-0.19,0.24,0.24,0,0,0-.24-0.26,0.24,0.24,0,0,1-.18-0.09,0.67,0.67,0,0,0-.35-0.36,3.7,3.7,0,0,1-.54-0.65,0,0,0,0,0,0,0l-0.66-.56a0.42,0.42,0,0,1-.16-0.12,0.43,0.43,0,0,0-.35-0.36,0.14,0.14,0,0,1-.08-0.12,0.23,0.23,0,0,0-.27-0.25,0.17,0.17,0,0,1-.11,0c0-.37-0.53-0.36-0.52-0.73a0.14,0.14,0,0,0-.1-0.08,0.34,0.34,0,0,1-.34-0.3,0.22,0.22,0,0,0-.14-0.11,0.23,0.23,0,0,1-.24-0.27,0.11,0.11,0,0,0,0-.09c-0.39,0-.35-0.52-0.71-0.53a1.37,1.37,0,0,0-.51-0.57,0.67,0.67,0,0,0-.36-0.32,0.24,0.24,0,0,1-.08-0.12,0.47,0.47,0,0,0,0-.12,2.87,2.87,0,0,1-.58-0.5,0.36,0.36,0,0,1-.25-0.35c0-.21.2-0.12,0.31-0.16l0.09,0V19.34l0.46,0c0-.16,0-0.29,0-0.46l0.44,0V18.49l0.26,0c0.13,0,.25,0,0.21-0.18s0.06-.29.27-0.25a0.5,0.5,0,0,0,.14,0c0-.14,0-0.28,0-0.43h0.46c0-.15,0-0.28,0-0.44l0.43,0V16.78l0.44,0V16.37h0.43c0-.15,0-0.28-0.05-0.43l0.46,0c0-.43,0-0.43.46-0.46,0-.13,0-0.27,0-0.43l0.46,0c0-.28,0-0.55.44-0.4,0-.19,0-0.32-0.05-0.48l0.44,0c0.06-.43.06-0.43,0.46-0.45,0-.14,0-0.27,0-0.43l0.47,0c0-.15,0-0.27,0-0.41l0.45,0V12.53H1060c-0.11-.37,0-0.51.41-0.38,0-.18,0-0.32,0-0.48h0.43a0.79,0.79,0,0,1,0-.41,0.87,0.87,0,0,1,.43,0c0-.14,0-0.28,0-0.44l0.48,0c0-.16-0.06-0.28-0.08-0.43h0.47a0.79,0.79,0,0,1,0-.4,0.75,0.75,0,0,1,.4,0c0-.12,0-0.25,0-0.4a0.36,0.36,0,0,1,.24.41c0,0.31.05,0.63,0.06,0.94s0,0.84,0,1.27c0,0.09,0,.17,0,0.26,0,1,0,1.92,0,2.88,0,0.46,0,.92,0,1.39s0.06,0.67.08,1c0,0.15,0,.29,0,0.44s0,0.51,0,.77c0,0.47,0,.93,0,1.4s0,1,0,1.43c0,0.74,0,1.49,0,2.23s0,1.63,0,2.44c0,0.19,0,.38,0,0.56,0,0.46.09,0.93,0.09,1.4,0,0.3-.07.59-0.09,0.89a1.46,1.46,0,0,0,.06.42C1062.85,29.86,1062.89,30,1062.67,30.13Z"/><path class="cls-2" d="M968.16,30.77a0.19,0.19,0,0,1-.24.21h-8.56c-0.13,0-.25,0-0.25-0.18a0.22,0.22,0,0,1,.25-0.26,9.66,9.66,0,0,0,1.5-.15,1.7,1.7,0,0,0,1.26-1.65q0-3.71,0-7.42c0-.36,0-0.37-0.38-0.37h-9.82c-0.35,0-.36,0-0.36.36q0,3.6,0,7.2a2,2,0,0,0,2,2c0.26,0,.53,0,0.8,0s0.25,0.08.22,0.23a0.45,0.45,0,0,1-.21.2,0.32,0.32,0,0,1-.16,0H946a0.45,0.45,0,0,1-.35-0.14c-0.08-.15,0-0.28.22-0.29a9.54,9.54,0,0,0,1.09-.06,1.86,1.86,0,0,0,1.66-1.9q0-8.58,0-17.15a1.94,1.94,0,0,0-2-2h-0.8c-0.14,0-.25,0-0.24-0.21A0.2,0.2,0,0,1,945.8,9h8.53a0.21,0.21,0,0,1,.26.22,0.2,0.2,0,0,1-.25.23h-0.85a2,2,0,0,0-1.93,1.95q0,3.93,0,7.87c0,0.07,0,.14,0,0.21a0.22,0.22,0,0,0,.27.26h9.9c0.39,0,.39,0,0.39-0.41,0-2.63,0-5.26,0-7.9a1.93,1.93,0,0,0-2-2h-0.77c-0.15,0-.26-0.08-0.22-0.23a0.41,0.41,0,0,1,.22-0.2,0.74,0.74,0,0,1,.26,0h8.27c0.16,0,.26,0,0.27.21a0.21,0.21,0,0,1-.25.24c-0.33,0-.66,0-1,0a2,2,0,0,0-1.77,1.89q0,8.57,0,17.13a2,2,0,0,0,2,2h0.77A0.2,0.2,0,0,1,968.16,30.77Z"/><path class="cls-2" d="M1002.18,24.34a4.75,4.75,0,0,0-.72-1.93,6,6,0,0,0-2.51-2.15c-0.33-.16-0.67-0.31-1.08-0.49a5.89,5.89,0,0,0,.87-0.37,5.19,5.19,0,0,0,2.08-6.63,5.85,5.85,0,0,0-3.37-2.89,11.45,11.45,0,0,0-4.2-.71c-1.88,0-3.77,0-5.66,0H985c-0.16,0-.39-0.07-0.39.22s0.24,0.2.4,0.21h0.8a1.84,1.84,0,0,1,1.84,1.86c0,5.71,0,11.41,0,17.12a2.63,2.63,0,0,1-.05.64A1.72,1.72,0,0,1,986,30.49c-0.36,0-.73,0-1.09,0-0.21,0-.26.09-0.24,0.28S984.86,31,985,31h9.2a16.42,16.42,0,0,0,2.08-.08,8.54,8.54,0,0,0,3.38-1.12,4.93,4.93,0,0,0,2.13-2.41A6,6,0,0,0,1002.18,24.34ZM991,10.4a7.43,7.43,0,0,1,5,.42,4.34,4.34,0,0,1,2.1,5.49,4.87,4.87,0,0,1-2.1,2.44,4.17,4.17,0,0,1-1.78.49,10.68,10.68,0,0,1-1.14.09c-0.74,0-1.48-.09-2.22-0.15-0.2,0-.19-0.18-0.19-0.33V14.78c0-1.31,0-2.63,0-3.95A0.37,0.37,0,0,1,991,10.4Zm6.7,18.07a4.33,4.33,0,0,1-1.56,1.09,6.17,6.17,0,0,1-2.8.54,20.58,20.58,0,0,1-2.37-.31,0.34,0.34,0,0,1-.31-0.41c0-1.44,0-2.88,0-4.32s0-2.86,0-4.3a0.33,0.33,0,0,1,.36-0.4c0.8,0,1.61-.12,2.42-0.08a6.18,6.18,0,0,1,2.92.62A4.9,4.9,0,0,1,997.7,28.47Z"/><path class="cls-2" d="M983.47,26.09A6.17,6.17,0,0,1,979.2,31a6.76,6.76,0,0,1-3.79.14,13.28,13.28,0,0,1-3-1.14,2.62,2.62,0,0,0-1.19-.26,1.12,1.12,0,0,0-1,.64A2.68,2.68,0,0,0,970,31a0.23,0.23,0,0,1-.26.23c-0.18,0-.18-0.14-0.18-0.27,0-.65,0-1.3,0-1.95V27.4q0-1.76,0-3.52c0-.14,0-0.3.19-0.31a0.2,0.2,0,0,1,.25.2,8.06,8.06,0,0,0,1.28,3.35,5.56,5.56,0,0,0,4.25,2.66,4.13,4.13,0,0,0,3.11-.65,3.93,3.93,0,0,0,1.62-2.45,3.49,3.49,0,0,0-.73-3.07A6.79,6.79,0,0,0,978,22.38c-1.22-.8-2.47-1.56-3.66-2.4a24.33,24.33,0,0,1-3.21-2.5A5.14,5.14,0,0,1,970,15.79a4.4,4.4,0,0,1-.26-2.28,5.15,5.15,0,0,1,1-2.53,5.59,5.59,0,0,1,2.68-1.9,6.78,6.78,0,0,1,5.28.33c0.32,0.15.63,0.32,0.94,0.49a1.82,1.82,0,0,0,1.1.26,1.15,1.15,0,0,0,1-.71,1.65,1.65,0,0,0,.09-0.36,0.27,0.27,0,0,1,.32-0.28c0.21,0,.15.2,0.15,0.31,0,1.69,0,3.39,0,5.09V15.8a0.23,0.23,0,1,1-.45,0,1.2,1.2,0,0,0,0-.13c-0.14-.57-0.25-1.15-0.44-1.7a6.17,6.17,0,0,0-1.46-2.6,4.44,4.44,0,0,0-3.86-1.25,5.13,5.13,0,0,0-2.4.9,3,3,0,0,0-.65,3.64,5.79,5.79,0,0,0,1.7,1.65c1.67,1.12,3.35,2.22,5,3.36a17.56,17.56,0,0,1,1.91,1.47A5.41,5.41,0,0,1,983.47,26.09Z"/><path class="cls-2" d="M1023.42,26.39c-0.28.37-.56,0.74-0.86,1.09a11.78,11.78,0,0,1-3.11,2.64,8.85,8.85,0,0,1-4.38,1.24,10.68,10.68,0,0,1-5.15-1.19,9.9,9.9,0,0,1-4.63-4.59,12.41,12.41,0,0,1-1.09-4.07,15.15,15.15,0,0,1,.66-5.7,8.3,8.3,0,0,1,1.59-2.84,10.7,10.7,0,0,1,3.54-2.81,10.31,10.31,0,0,1,3.79-1,10.18,10.18,0,0,1,4.36.49c0.66,0.24,1.28.6,1.93,0.91a1.5,1.5,0,0,0,1.23.14,1.15,1.15,0,0,0,.78-1,0.25,0.25,0,0,1,.28-0.27c0.22,0,.2.16,0.2,0.31,0.06,1.47.11,2.94,0.16,4.41,0,0.82.07,1.63,0.1,2.45,0,0.12.08,0.28-.14,0.3a0.29,0.29,0,0,1-.37-0.27,13.47,13.47,0,0,0-.43-1.7,6,6,0,0,0-1.69-2.42,7.59,7.59,0,0,0-2.82-1.66,6.78,6.78,0,0,0-4.4.1,6.62,6.62,0,0,0-3.35,2.53,10.23,10.23,0,0,0-1.56,3.76,12,12,0,0,0-.33,3.08,10.59,10.59,0,0,0,.8,4.44,7.45,7.45,0,0,0,3.83,4.07,8.07,8.07,0,0,0,4,.8,8.34,8.34,0,0,0,4.63-1.72,9.53,9.53,0,0,0,1.82-1.82,0.35,0.35,0,0,1,.63,0A0.3,0.3,0,0,1,1023.42,26.39Z"/></g><g id="z1udHN" class="cls-1"><path class="cls-2" d="M520.17,73.11a7.45,7.45,0,0,1-1.61-.56,12,12,0,0,0-6.6-2,5.56,5.56,0,0,0-5.58,4.5,26.1,26.1,0,0,0-.2,10.57c0.25,1.57.55,3.13,0.91,4.67,0.22,0.92.63,1.79,0.91,2.69a2.85,2.85,0,0,1,0,.86,1.84,1.84,0,0,1-.8-0.35c-0.65-.94-1.25-1.93-1.83-2.92a68.66,68.66,0,0,1-5.81-12.44c-0.47-1.39-.75-2.84-1.13-4.25a4.79,4.79,0,0,0-.35-0.76,2.77,2.77,0,0,0-.76.47,5.15,5.15,0,0,0-1.24,3c-0.25,3.35,1.06,6.28,2.52,9.14a37.82,37.82,0,0,0,6,8.46,2.57,2.57,0,0,1,.34.86,2.78,2.78,0,0,1-1-.18,66.12,66.12,0,0,1-15.35-14,0.94,0.94,0,0,0-.64-0.41,1,1,0,0,0-.48.63,6.26,6.26,0,0,0,1.06,6,25.32,25.32,0,0,0,8.21,7.05c1.94,1.12,4,2,6,3a3.83,3.83,0,0,1,.61.47l-0.11.3a10.88,10.88,0,0,1-2.28,0c-3-.66-6-1.3-8.91-2.17a41.5,41.5,0,0,1-12-5.35,9.61,9.61,0,0,1-4-4.7,3.81,3.81,0,0,1,.66-3.58,13.2,13.2,0,0,1,6.07-4.42c0.72-.31,1.46-0.55,2.17-0.87,0.93-.42,1-0.65.65-1.62a4.7,4.7,0,0,1,.29-4.32,5.86,5.86,0,0,1,3.3-2.37c2.55-.87,5.18-0.69,7.8-0.56,0.56,0,1,0,1.11-.63,0.76-3.51,3.23-4.8,6.57-4.21a20.72,20.72,0,0,1,8.09,3.37c2.33,1.59,4.51,3.4,6.7,5.18A4.71,4.71,0,0,1,520.17,73.11Z"/><path class="cls-2" d="M581.73,94.27A5.72,5.72,0,0,1,578,97.85a18.59,18.59,0,0,1-6.26.58,36,36,0,0,1-4.66-.16,6.7,6.7,0,0,1-6-5.8,22.24,22.24,0,0,1,.1-9.11,6.66,6.66,0,0,1,6.25-5.45,64.42,64.42,0,0,1,9.24.14,5.32,5.32,0,0,1,4.79,3.48,9.59,9.59,0,0,1,.41,2.7,0.77,0.77,0,0,1-1,.81c-0.74,0-1.49,0-2.24,0A1.64,1.64,0,0,1,576.78,84a2.07,2.07,0,0,0-2.27-1.47c-2.07.07-4.15,0-6.22,0.2a2.41,2.41,0,0,0-2.17,2.42c-0.05,1.9,0,3.8,0,5.7a2.84,2.84,0,0,0,3,2.81c2-.11,4,0,6,0a1.73,1.73,0,0,0,1.76-1.36,0.72,0.72,0,0,0-.79-1.06h-2.86c-1.28,0-1.82-.46-1.9-1.74-0.15-2.48,0-2.65,2.26-2.59,1,0,2,0,3,0,1.33,0,2.66,0,4,0a1.39,1.39,0,0,1,1.6,1.6C582.18,90.39,582.45,92.37,581.73,94.27Z"/><path class="cls-2" d="M556.81,95a5,5,0,0,1-3.17,2.75,26.08,26.08,0,0,1-4.59.67,49.4,49.4,0,0,1-5.45,0c-2.76-.13-5.09-1.16-6.39-3.74a9.42,9.42,0,0,1-1-3.38,25.79,25.79,0,0,1,.23-7.76,7,7,0,0,1,7.07-5.71c1.15,0,2.31,0,3.47,0l0-.25a56.72,56.72,0,0,1,6.29.86c2.84,0.71,3.92,3.12,4,5.7a0.9,0.9,0,0,1-1.12.9h-2.33a1.58,1.58,0,0,1-1.73-1,2.21,2.21,0,0,0-2.49-1.53c-1.87.07-3.76,0-5.62,0.13s-2.49,1.06-2.56,2.8,0,3.57,0,5.35a2.83,2.83,0,0,0,3,2.85c2-.13,4,0,6,0a1.66,1.66,0,0,0,1.68-1.24c0.28-.78,0-1.16-0.81-1.19s-1.91,0-2.86,0c-1.28,0-1.69-.45-1.7-1.74,0-2.8-.2-2.58,2.56-2.58,2.08,0,4.16,0,6.23,0,1.54,0,2,.43,2,2C557.59,90.9,557.84,93,556.81,95Z"/><path class="cls-2" d="M529.08,97.91a11.67,11.67,0,0,1-2.28.46c-1.3.08-2.6,0-3.9,0l0,0.22a45.15,45.15,0,0,1-5.56-.63c-3.19-.74-4.74-3.14-5.05-6.21a37.47,37.47,0,0,1,0-7.33,6.86,6.86,0,0,1,7-6.58,67.41,67.41,0,0,1,8.47.15,5.87,5.87,0,0,1,5.58,5.62,1.09,1.09,0,0,1-1.18,1.42c-0.52,0-1,0-1.56,0a2.3,2.3,0,0,1-2.78-1.62,1.6,1.6,0,0,0-1.21-.79c-2.38,0-4.77,0-7.16.08a2,2,0,0,0-1.77,1.69,15.69,15.69,0,0,0-.07,7.21,2.16,2.16,0,0,0,1.95,1.85c2.3,0.12,4.6.09,6.91,0.09A1.66,1.66,0,0,0,528,92.38c0.51-1.22.79-1.4,2.07-1.41,0.84,0,1.68,0,2.51,0a0.82,0.82,0,0,1,1,.91A5.81,5.81,0,0,1,529.08,97.91Z"/></g><g id="rGxURf.tif" class="cls-1"><path class="cls-2" d="M77.23,13.89H72c-1.81,0-3.62,0-5.44,0a8.75,8.75,0,0,0-8.58,8.52,8.62,8.62,0,0,0,8,9.06c3.75,0.19,7.52.08,11.29,0.07A8.83,8.83,0,0,0,77.23,13.89Zm0.62,14.46a25.24,25.24,0,0,1-3,.14c-1,0-2,0-2.93,0V28.37a56.2,56.2,0,0,1-5.84,0,5.54,5.54,0,0,1-4.8-5.65,5.69,5.69,0,0,1,4.86-5.63,11.34,11.34,0,0,1,1.67-.12c3.32,0,6.64-.06,9.95.17a5.57,5.57,0,0,1,4.87,5.6A5.74,5.74,0,0,1,77.86,28.35Z"/><path class="cls-2" d="M195.54,28.5c-0.67,1-1.24,2-1.87,2.85a1,1,0,0,1-.68.19c-3.46,0-6.92.07-10.37,0a8.82,8.82,0,0,1-.09-17.62c4.07-.11,8.14,0,12.21,0a4.15,4.15,0,0,1,.47.07c-0.62,1-1.18,1.89-1.81,2.76a1.17,1.17,0,0,1-.82.21c-3,0-6,0-9,0a5.81,5.81,0,0,0-5.54,3.34,4.21,4.21,0,0,0-.22.54,1.23,1.23,0,0,0,0,.32h16.47c-0.7,1.08-1.28,2-1.93,3a1.1,1.1,0,0,1-.75.17H177.85a5.44,5.44,0,0,0,4.28,4.06,10.14,10.14,0,0,0,1.74.15C187.7,28.51,191.52,28.5,195.54,28.5Z"/><path class="cls-2" d="M101.18,25.88l6.69,5.63c-1.76,0-3.29,0-4.83,0a1,1,0,0,1-.48-0.31l-9.45-8.25A1,1,0,0,1,93,22.74c0.27,0,.5,0,0.73,0,2.62,0,5.24.05,7.86,0.06a7,7,0,0,0,1.66-.15,2.86,2.86,0,0,0,0-5.51,5.25,5.25,0,0,0-1.24-.15c-3.32,0-6.64,0-10,0a0.72,0.72,0,0,0-.88.9c0,4.21,0,8.42,0,12.63v1H87.84V13.95c0.3,0,.57-0.06.84-0.06,4.66,0,9.31,0,14,0a6,6,0,0,1,1.23,11.81A20.88,20.88,0,0,1,101.18,25.88Z"/><path class="cls-2" d="M134.27,31.54c-1.21,0-2.38,0-3.54,0a0.89,0.89,0,0,1-.55-0.41c-0.44-.67-0.87-1.36-1.25-2.07a1,1,0,0,0-1.06-.59c-2.62,0-5.24,0-7.86,0a1,1,0,0,1-1-.54c-0.49-.83-1-1.64-1.63-2.57h9.07l-4.8-7.75c-0.23.33-.4,0.57-0.56,0.81-2.6,4.12-5.2,8.24-7.78,12.38a1.31,1.31,0,0,1-1.33.75c-1-.06-2,0-3.16,0l1-1.6q4.72-7.39,9.44-14.79a2.63,2.63,0,0,1,2.45-1.44,2.31,2.31,0,0,1,2,1Q129,23,134.24,31.23A1.18,1.18,0,0,1,134.27,31.54Z"/><path class="cls-2" d="M154.08,28.5c-0.67,1-1.23,2-1.85,2.83a0.93,0.93,0,0,1-.67.21c-3.46,0-6.92.07-10.38,0a8.82,8.82,0,0,1,.19-17.64c3.85,0,7.7,0,11.55,0,0.22,0,.44,0,0.84,0-0.65,1-1.22,1.95-1.86,2.83a1.13,1.13,0,0,1-.77.16c-3,0-6,0-9,0a5.91,5.91,0,0,0-5.85,4,5.8,5.8,0,0,0,5.7,7.53c3.66,0,7.31,0,11,0h1.08Z"/><path class="cls-2" d="M174.93,28.47c-0.68,1.06-1.25,2-1.86,2.85a0.93,0.93,0,0,1-.67.21q-7.45,0-14.9,0a1.72,1.72,0,0,1-1.87-2c0-1.65,0-3.29,0-4.94,0-3.32,0-6.64,0-10,0-.63.19-0.84,0.81-0.81,0.83,0,1.67,0,2.64,0V28.47h15.87Z"/></g><g id="AneJdC.tif" class="cls-1"><path class="cls-2" d="M721.37,24.17H653.21c-0.28,0-.57,0-0.85.06l0,0.3a5.6,5.6,0,0,0,1.14.24c2,0,4,0,6.07,0a1,1,0,0,1-.46.32,3.66,3.66,0,0,0-2.39,3.17,3.5,3.5,0,0,0,2.09,3.52c0.91,0.46,1.84.9,2.75,1.39a10.2,10.2,0,0,1,1.67,1,2.11,2.11,0,0,1,.53,2.77,3.25,3.25,0,0,1-3.23,1.3,2.75,2.75,0,0,1-2.73-1.68c-0.15-.41-0.36-0.81-0.63-1.43,0,1.18,0,2.09,0,3a1.05,1.05,0,0,0,.43.79c2.06,0.58,4.14.89,6.16-.16a3.5,3.5,0,0,0,.6-5.91A17.25,17.25,0,0,0,662,31.48a21.56,21.56,0,0,1-2.54-1.39,2.92,2.92,0,0,1-1-1.56,2.4,2.4,0,0,1,2-2.68c1.35-.27,3.08-0.14,3.51,1.15a14.52,14.52,0,0,0,.76,1.63,9.58,9.58,0,0,0,.16-2.77,4.18,4.18,0,0,0-.56-1.23c1,0.17,2.13.36,3.26,0.58a1.11,1.11,0,0,1,1,1.27c0,3.62,0,7.24,0,10.86a1.07,1.07,0,0,1-.81,1.14c-0.46.14-.91,0.31-1.36,0.47l0,0.09h6.13a2.19,2.19,0,0,0-.93-0.44A1.37,1.37,0,0,1,670.33,37c0.06-1.31,0-2.62,0-3.93a0.58,0.58,0,0,1,.67-0.73c2.19,0,4.39,0,6.59,0a0.59,0.59,0,0,1,.72.69c0,1.43,0,2.85,0,4.28a1.14,1.14,0,0,1-.87,1.21c-0.46.14-.92,0.31-1.38,0.47l0,0.09h10.39a1.71,1.71,0,0,0-.69-0.41c-1-.37-1.1-0.47-0.73-1.48s0.87-2.24,1.36-3.32a1,1,0,0,1,.74-0.49c1.34,0,2.68,0,4,0a0.92,0.92,0,0,1,.68.46c0.51,1.17.94,2.38,1.42,3.56a0.78,0.78,0,0,1-.57,1.18c-0.33.11-.66,0.25-1,0.38l0,0.13h5.72a0.51,0.51,0,0,0-.06-0.14,0.6,0.6,0,0,0-.21-0.14A3.06,3.06,0,0,1,695,36.5c-1.33-3.33-2.7-6.64-4-10-0.21-.52-0.36-1.06-0.58-1.74a10.7,10.7,0,0,1,2,0,3,3,0,0,1,2.46,1.64q2.46,6,4.89,12c0.17,0.42.22,0.87,0.87,0.84s0.57-.53.7-0.89c1.17-3.29,2.33-6.59,3.56-10.09,0.18,0.31.25,0.4,0.29,0.5,1.34,3.27,2.69,6.53,4,9.8,0.16,0.4.31,0.79,0.81,0.64a1,1,0,0,0,.58-0.55c1.43-4.14,2.83-8.29,4.27-12.43a1.75,1.75,0,0,1,.88-1,9.69,9.69,0,0,1,2.47-.56c1.08-.09,2.17,0,3.25,0a4.81,4.81,0,0,0,1.09-.3A4.77,4.77,0,0,0,721.37,24.17ZM678.28,31c-2.58,0-5,0-7.46,0a0.26,0.26,0,0,1-.14-0.06l-0.07-.06a0.72,0.72,0,0,1-.24-0.4c0-1.42-.05-2.84,0-4.26a1.14,1.14,0,0,1,.58-0.83,8.72,8.72,0,0,1,6.72,0,0.53,0.53,0,0,1,.16.1l0,0,0.1,0.1,0.09,0.11a1,1,0,0,1,.2.49C678.31,27.77,678.28,29.33,678.28,31Zm7.58,0.85L684.08,36l-0.6,1.38c0,0.1-.09.2-0.14,0.29l-0.16.25-0.19.21a1.62,1.62,0,0,1-.21.18l-0.18.11a1.47,1.47,0,0,1-.29.12,0.81,0.81,0,0,1-.22,0h0l-0.25,0a2.53,2.53,0,0,1-.65-0.09,2.06,2.06,0,0,1-.48-0.19,1,1,0,0,1-.18-0.13,1.31,1.31,0,0,1-.4-1.08q0-5.3,0-10.59a1.12,1.12,0,0,1,1-1.29l0.71-.14c0.35-.07.71-0.14,1.06-0.2a9.38,9.38,0,0,1,1.07-.12c1.56-.08,3.12,0,4.82,0-0.19.61-.29,1.11-0.49,1.57Q687.06,29.1,685.87,31.87Zm5.3,0.31h-4l2-4.8Zm9.61,3.72c-0.31-.7-0.53-1.18-0.74-1.67-1.08-2.48-2.17-5-3.23-7.45-0.42-1-.31-1.27.71-1.58a9.37,9.37,0,0,1,2.32-.42c1.62-.06,3.24,0,5.08,0Zm12.61-9.3c-1.07,2.82-2.08,5.66-3.11,8.49,0,0.12-.12.24-0.26,0.5l-4.6-10.88c2.54,0.28,4.93-.37,7.27.42A1,1,0,0,1,713.39,26.61Z"/><path class="cls-2" d="M652.31,25.58a15.57,15.57,0,0,1-1.81-1.68c-2.09-2.18-4.15-4.39-6.22-6.59l-0.89-.94c1.08-.52,2.14-0.94,3.1-1.52a2.81,2.81,0,0,0,1.32-2.46,3.87,3.87,0,0,0-3.5-4.23c-2.73-.23-5.51-0.06-8.27-0.06L636,8.2l1.55,0.58a1.26,1.26,0,0,1,.92,1.29v11.2a1.14,1.14,0,0,1-.81,1.17,1.81,1.81,0,0,1-2.45-1.18Q632.59,15,630.09,8.68a0.88,0.88,0,0,0-1-.7,0.87,0.87,0,0,0-1,.6c-1.6,3.93-3.27,7.82-4.86,11.76-0.51,1.26-1.16,2.27-2.6,2.52a0.31,0.31,0,0,0-.07.14h5.19a1.37,1.37,0,0,0-.6-0.37c-1.08-.37-1.15-0.46-0.76-1.52s0.9-2.34,1.42-3.48a1,1,0,0,1,.74-0.52q2.13-.07,4.27,0a1,1,0,0,1,.69.46c0.54,1.26,1,2.54,1.51,3.81a0.74,0.74,0,0,1-.48,1.09c-0.36.13-.71,0.28-1.07,0.42l0,0.15h11.17a7.57,7.57,0,0,0-1.4-.63,1.54,1.54,0,0,1-.85-0.81c-0.08-1.72,0-3.45,0-5.38a5.42,5.42,0,0,1,.84.51q2.22,2.19,4.43,4.4c1.59,1.59,3.15,3.22,4.75,4.8a4.11,4.11,0,0,0,4,1A22.91,22.91,0,0,1,652.31,25.58Zm-25.7-9.7,2.1-5,2.1,5H626.6Zm14.25-.58a0.74,0.74,0,0,1-.41-0.57c0-.68,0-1.36,0-2V11.93c0-.42,0-0.83,0-1.25,0-.16,0-0.31,0-0.47s0-.17,0-0.25a1,1,0,0,1,.38-0.75,3.75,3.75,0,0,1,5,2.4,2.59,2.59,0,0,1-1,2.72A5.21,5.21,0,0,1,640.86,15.3Z"/><path class="cls-2" d="M621.59,9a15.59,15.59,0,0,1-.19,2.18c-0.15-.34-0.31-0.68-0.44-1a1.35,1.35,0,0,0-1.27-1c-1.11,0-2.22,0-3.33,0a0.65,0.65,0,0,0-.75.79q0,2.09,0,4.19a0.57,0.57,0,0,0,.7.7c0.6,0,1.2,0,1.8,0,1.08,0,2.19.14,2.52-1.42l0.18,0.19v4.34a3.36,3.36,0,0,1-.29-0.46C619.89,16,619.89,16,618.32,16c-0.87,0-2-.22-2.53.23s-0.16,1.6-.17,2.45,0,1.43,0,2.14c0,1.22.13,1.37,1.33,1.7,0.3,0.08.6,0.18,0.89,0.28A0.63,0.63,0,0,1,618,23h-6.55l0-.12c0.45-.14.9-0.3,1.36-0.43a1.1,1.1,0,0,0,.89-1.18q0-5.73,0-11.46a1.1,1.1,0,0,0-.82-1.14,3.38,3.38,0,0,0-4.58,1.56c-0.94,1.5-1.93,3-2.84,4.47a3.08,3.08,0,0,0-.43,1.42c-0.05,1.57,0,3.14,0,4.7,0,1.22.14,1.39,1.31,1.75a2.39,2.39,0,0,1,.9.43H600.8l0-.13c0.45-.15.89-0.31,1.34-0.45a1,1,0,0,0,.83-1.13c0-1.62,0-3.25,0-4.87a1.63,1.63,0,0,0-.18-0.81c-1.15-1.83-2.3-3.67-3.51-5.45a4.22,4.22,0,0,0-2.74-1.9A2.19,2.19,0,0,1,596,8a4.58,4.58,0,0,1,4.83,1.47c1,1.15,1.76,2.44,2.63,3.68,0.22,0.32.41,0.67,0.7,1.15L607,9.81a0.69,0.69,0,0,0-.42-1.18,2.61,2.61,0,0,1-1-.59c0.21,0,.42-0.05.63-0.05,4.79,0,9.58,0,14.36,0C621.32,8,621.67,8.17,621.59,9Z"/><path class="cls-2" d="M678.5,22.46a4.27,4.27,0,0,1,1.32.55h-6.2l0-.13,0.52-.2c1.54-.49,1.54-0.49,1.54-2.06,0-1.28,0-2.57,0-3.85a0.92,0.92,0,0,0-.46-0.7c-2.47,0-4.95,0-7.52,0,0,1.92,0,3.76,0,5.6a1.33,1.33,0,0,0,.71.75c0.42,0.22.9,0.32,1.34,0.59h-6.15a0.27,0.27,0,0,1,0-.11c2.35-.77,2-0.65,2.06-3.1,0-3.14,0-6.27,0-9.4,0-1.44,0-1.46-1.41-1.89l-0.87-.29,0-.15h6.49l0,0.17c-0.47.15-.93,0.32-1.4,0.45a1.14,1.14,0,0,0-.93,1.25c0,1.34,0,2.68,0,4a0.62,0.62,0,0,0,.75.74c2.17,0,4.33,0,6.5,0a0.67,0.67,0,0,0,.8-0.81c0-1.28,0-2.57,0-3.85a1.23,1.23,0,0,0-1-1.42,4,4,0,0,1-1.27-.53H680l0,0.13c-0.47.15-.93,0.33-1.4,0.44a1.23,1.23,0,0,0-1,1.35q0,5.68.06,11.37A1.06,1.06,0,0,0,678.5,22.46Z"/><path class="cls-2" d="M596.4,20c0,0.92-.06,1.84-0.17,2.75a1,1,0,0,1-.75.3c-3.05,0-6.1,0-9.15,0a3.4,3.4,0,0,1-1.3-.17c0.44-.14.87-0.3,1.31-0.42a1.16,1.16,0,0,0,1-1.24q0-5.69,0-11.37a1.1,1.1,0,0,0-.87-1.2A5.29,5.29,0,0,1,584.88,8c0.15,0,.31,0,0.47,0,3.11,0,6.21,0,9.32,0,0.74,0,1,.22,1,1s0,1.45,0,2.37a1.73,1.73,0,0,1-.28-0.36C595,9.35,593.89,9,592.46,9.13c-0.8,0-1.6,0-2.4,0a0.69,0.69,0,0,0-.81.82c0,1.37,0,2.74,0,4.1a0.64,0.64,0,0,0,.81.77,16,16,0,0,1,2,0c1.15,0.09,2.13-.07,2.62-1.35v4.37a0.35,0.35,0,0,1-.15-0.07c-0.33-1.59-1.4-2-2.85-1.78a11.85,11.85,0,0,1-1.79,0,0.5,0.5,0,0,0-.59.61c0,1.45,0,2.91,0,4.36a0.89,0.89,0,0,0,1.07,1c1.34,0,2.68,0,4,0a1.2,1.2,0,0,0,1.37-1,8.4,8.4,0,0,1,.44-1.05Z"/><path class="cls-2" d="M661.93,7.86V12l-0.15,0-0.57-1.66a1.35,1.35,0,0,0-1.47-1c-0.8,0-1.6,0-2.4,0a0.58,0.58,0,0,0-.69.71q0,5.6,0,11.2a1.14,1.14,0,0,0,.95,1.23l1.42,0.4L659,23h-6.53l0-.12,1.37-.45a1.05,1.05,0,0,0,.83-1.13c0-3.73,0-7.47,0-11.2a0.69,0.69,0,0,0-.88-0.81,20.94,20.94,0,0,1-2.22,0,1.19,1.19,0,0,0-1.34.93,7,7,0,0,1-.7,1.63v-4h12.46Z"/><path class="cls-2" d="M581.19,22.59a7.34,7.34,0,0,1-4.68.35c-2-.42-1.79,0-1.83-2.2,0-.56,0-1.13,0-1.7l0.16,0a4.19,4.19,0,0,1,.4.91c0.41,2.37,4.51,2.63,5.93,1.09a2.11,2.11,0,0,0,0-2.94,9,9,0,0,0-1.89-1.29c-1.12-.63-2.32-1.1-3.39-1.79a3.54,3.54,0,0,1-.2-5.92c2-1.49,4.23-1.26,6.46-.71a0.74,0.74,0,0,1,.36.58,14.81,14.81,0,0,1-.17,3.13c-0.24-.52-0.51-1-0.7-1.57-0.45-1.27-1.79-1.53-3.54-1.27a2.69,2.69,0,0,0-2.21,2.5,2.4,2.4,0,0,0,1.42,2.09c0.78,0.47,1.63.81,2.43,1.24a15.73,15.73,0,0,1,2.14,1.23A3.6,3.6,0,0,1,581.19,22.59Z"/><path class="cls-2" d="M647.73,24.4l-0.09.37h-78a4.53,4.53,0,0,1-1.11-.29,4.59,4.59,0,0,1,1.12-.3q38.37,0,76.73,0A8.19,8.19,0,0,1,647.73,24.4Z"/><path class="cls-2" d="M685.87,31.87q-1.18,2.76-2.38,5.52a2.61,2.61,0,0,1-.15.29c0.05-.09.1-0.19,0.14-0.29Q684.69,34.63,685.87,31.87Z"/><path class="cls-2" d="M640.42,11.94c0,0.11,0,.22,0,0.33s0,0.29,0,.43c0-.14,0-0.29,0-0.43S640.42,12,640.42,11.94Z"/><path class="cls-2" d="M628.7,10.86l2.1,5H626.6Z"/></g><g id="YpZLeR.tif" class="cls-1"><path class="cls-2" d="M1097.83,89.88a4,4,0,0,0-2.11-2.41,5.86,5.86,0,0,0-2.63-.51,4.32,4.32,0,0,0-4.17,2.86,12,12,0,0,0-.41,1.51V93c0.08,0.35.13,0.71,0.23,1.06A4.48,4.48,0,0,0,1091,97a7.55,7.55,0,0,0,1.1.39,3.88,3.88,0,0,0,.38.09H1094l0.2,0a4.21,4.21,0,0,0,3.65-2.94A7,7,0,0,0,1097.83,89.88Zm-1.73,4.46a2.88,2.88,0,0,1-2.76,1.85,2.62,2.62,0,0,1-2.6-1.54,4.81,4.81,0,0,1-.49-1.54,6.22,6.22,0,0,1,.19-2.81,2.77,2.77,0,0,1,3.26-2,2.93,2.93,0,0,1,2,1,3.44,3.44,0,0,1,.74,1.82c0,0.36.06,0.72,0.09,1.08A5.56,5.56,0,0,1,1096.11,94.34Z"/><path class="cls-2" d="M1169.9,97.22v0.09c-0.49,0-1,0-1.48,0a0.49,0.49,0,0,1-.46-0.24q-1.46-2.1-2.94-4.18l-0.16-.2-0.7.85c-0.23.29-.48,0.57-0.69,0.87a0.7,0.7,0,0,0-.13.38q0,1.12,0,2.24a0.23,0.23,0,0,1-.27.28c-0.35,0-.69,0-1,0s-0.32,0-.32-0.31q0-2.66,0-5.32,0-2.11,0-4.21c0-.29,0-0.3.3-0.3s0.69,0,1,0,0.3,0.08.3,0.31c0,1.6,0,3.21,0,4.81v0.34l0.51-.64,3.61-4.61a0.47,0.47,0,0,1,.43-0.21c0.5,0,1,0,1.56,0l-0.18.26-3.13,3.93a0.3,0.3,0,0,0,0,.42c0.92,1.31,1.83,2.64,2.74,4Z"/><path class="cls-2" d="M1154,96.44a4.75,4.75,0,0,1-1.92.88l-0.59.13h-1.62a12.47,12.47,0,0,1-1.37-.39,4,4,0,0,1-2.24-2.25,5.91,5.91,0,0,1,.45-5.77,4.37,4.37,0,0,1,3.11-2,7.16,7.16,0,0,1,3.64.36c0.28,0.11.28,0.12,0.15,0.4l-0.4.87a10.27,10.27,0,0,0-1.18-.34,4.58,4.58,0,0,0-2.4.1,3.12,3.12,0,0,0-1.83,1.89,5,5,0,0,0,0,3.79,3.21,3.21,0,0,0,3.44,2,3.11,3.11,0,0,0,2-.89c0.11-.12.18-0.07,0.26,0L1154,96C1154.21,96.26,1154.21,96.26,1154,96.44Z"/><path class="cls-2" d="M1143.82,60.26a14.77,14.77,0,0,0-17.22-12.59,14.41,14.41,0,0,0-10.1,6.92,14.87,14.87,0,0,0-2.16,7.62c0.09,0.85.14,1.71,0.29,2.55a14.14,14.14,0,0,0,5.41,9,14.59,14.59,0,0,0,9.52,3.06,15,15,0,0,0,5.4-1.12,14,14,0,0,0,5.8-4.35A14.34,14.34,0,0,0,1143.82,60.26Zm-5.9,8.22a10.47,10.47,0,0,1-7.42,4.48c-0.43.06-.87,0.08-1.22,0.1a10.9,10.9,0,0,1-10.86-10.62,10.88,10.88,0,0,1,1.94-6.73,10.22,10.22,0,0,1,7.09-4.36,10.79,10.79,0,0,1,6,.7,10.2,10.2,0,0,1,6.2,7.45A10.75,10.75,0,0,1,1137.92,68.48Z"/><path class="cls-2" d="M1110.67,92.66l0.36-.13a2.82,2.82,0,0,0,1.89-2.58,2.53,2.53,0,0,0-1.89-2.58,6,6,0,0,0-2-.31c-0.95,0-1.9.05-2.84,0.09-0.4,0-.4,0-0.4.43v5.16c0,1.43,0,2.85,0,4.28a0.23,0.23,0,0,0,.28.28c0.35,0,.69,0,1,0s0.31,0,.31-0.31q0-1.89,0-3.77c0-.32,0-0.32.33-0.31s0.77,0,1.15.05a0.43,0.43,0,0,1,.28.16q1.44,2,2.86,4a0.4,0.4,0,0,0,.36.19h1.37a1.9,1.9,0,0,0,.25,0Zm-1.82-.92a11.15,11.15,0,0,1-1.22,0,0.19,0.19,0,0,1-.22-0.22q0-1.42,0-2.85a0.18,0.18,0,0,1,.19-0.22l0.9-.06v0a14.84,14.84,0,0,1,1.48.22,1.42,1.42,0,0,1,1.18,1.92,1.2,1.2,0,0,1-.87,1A7.69,7.69,0,0,1,1108.85,91.74Z"/><path class="cls-2" d="M1125.84,92.66l0.14-.06a2.83,2.83,0,0,0,2.08-3,2.46,2.46,0,0,0-1.45-2.05,4.88,4.88,0,0,0-2.09-.47c-1,0-2.1,0-3.14.07-0.46,0-.45,0-0.44.48q0,4.72,0,9.44a0.19,0.19,0,0,0,.22.23h1.06c0.36,0,.36,0,0.36-0.36,0-1.25,0-2.5,0-3.75,0-.22.07-0.3,0.29-0.29a7.74,7.74,0,0,0,1,0,0.61,0.61,0,0,1,.58.32c0.91,1.29,1.83,2.56,2.74,3.84a0.42,0.42,0,0,0,.38.2h1.34l0.26,0Zm-3.1-1c-0.15,0-.16-0.12-0.16-0.23V90.06c0-.46,0-0.93,0-1.39a0.21,0.21,0,0,1,.24-0.26,6.42,6.42,0,0,1,2.52.18,1.3,1.3,0,0,1,1,1.37,1.45,1.45,0,0,1-1.05,1.58A6.55,6.55,0,0,1,1122.74,91.71Z"/><path class="cls-2" d="M1137.93,97.1a0.17,0.17,0,0,1-.2.21h-1.23a0.18,0.18,0,0,1-.21-0.21c0-.08,0-0.15,0-0.23V87.5c0-.34,0-0.34.33-0.34h1.11a0.16,0.16,0,0,1,.2.2c0,1.63,0,3.25,0,4.88h0C1137.93,93.86,1137.93,95.48,1137.93,97.1Z"/><path class="cls-2" d="M1122.58,90.06c0-.46,0-0.93,0-1.39a0.21,0.21,0,0,1,.24-0.26,6.42,6.42,0,0,1,2.52.18,1.3,1.3,0,0,1,1,1.37,1.45,1.45,0,0,1-1.05,1.58,6.54,6.54,0,0,1-2.59.16c-0.15,0-.16-0.12-0.16-0.23Q1122.58,90.77,1122.58,90.06Z"/></g><g id="uZyjJn.tif" class="cls-1"><path class="cls-2" d="M967.1,83.65q0,0.61,0,1.22t0,1.26q0-.63,0-1.26T967.1,83.65Z"/><path class="cls-2" d="M1045,64.89V97l-1.93-1.8c-1.53-1.43-3.05-2.87-4.59-4.29a1,1,0,0,1-.35-0.85q0-9,0-17.94c0-.68,0-0.68-0.69-0.68h-19.11a1.32,1.32,0,0,1-1-.4c-2-1.94-4.09-3.86-6.13-5.78-0.1-.09-0.19-0.2-0.35-0.36H1045Z"/><path class="cls-2" d="M1030,89.73a0.39,0.39,0,0,1-.49.47c-0.78,0-1.56,0-2.34,0a0.79,0.79,0,0,1-.72-0.37q-2.61-3.52-5.25-7l-0.37-.46c0,0.3,0,.47,0,0.64,0,2.23,0,4.45,0,6.68,0,0.44-.14.57-0.55,0.55s-0.94,0-1.41,0a0.36,0.36,0,0,1-.44-0.42q0-4.92,0-9.84a0.36,0.36,0,0,1,.44-0.41c0.84,0,1.69,0,2.53,0a0.94,0.94,0,0,1,.6.37c1.75,2.37,3.47,4.74,5.2,7.12l0.41,0.54c0-.31,0-0.48,0-0.64,0-2.27,0-4.55,0-6.82,0-.48.15-0.63,0.61-0.59a7.8,7.8,0,0,0,1.22,0c0.44,0,.55.14,0.55,0.56,0,2.81,0,5.62,0,8.43C1030,88.92,1030,89.32,1030,89.73Z"/><path class="cls-2" d="M1003.2,80.12a9.25,9.25,0,0,0-7.79,0c-3.76,1.71-3.58,6.95-.95,8.84a9,9,0,0,0,4.89,1.51,29.52,29.52,0,0,0,3-.56,5,5,0,0,0,3.81-4.8A4.92,4.92,0,0,0,1003.2,80.12Zm-4.54,8.54a3.57,3.57,0,0,1-3.39-3.8c-0.07-2.22,1.58-4,4.42-3.83a3.64,3.64,0,0,1,3.7,3C1003.86,87,1001.81,89.08,998.66,88.66Z"/><path class="cls-2" d="M936.92,80a9.32,9.32,0,0,0-7.3,0,4.82,4.82,0,0,0-3.11,4.88,4.92,4.92,0,0,0,3.17,4.8,8.56,8.56,0,0,0,3.68.66,8.66,8.66,0,0,0,3.23-.52,5,5,0,0,0,3.49-4.53C940.16,82.67,939.18,80.92,936.92,80Zm-4.52,8.62a3.46,3.46,0,0,1-3-2.36,3.93,3.93,0,0,1,.67-4,3.46,3.46,0,0,1,1.76-1.08,5.11,5.11,0,0,1,2.93,0,3.54,3.54,0,0,1,2.59,3.63C937.39,87.51,935.26,89.12,932.4,88.63Z"/><path class="cls-2" d="M914.61,89.47a0.44,0.44,0,0,1-.45.54,18.77,18.77,0,0,1-6.92.14A5.17,5.17,0,0,1,903,86.49a5.26,5.26,0,0,1,3.58-6.64,11.71,11.71,0,0,1,4.91-.46c0.68,0.05,1.35.17,2,.26a0.47,0.47,0,0,1,.51.5c0,0.46.09,0.93,0.14,1.39-1-.17-2-0.36-3-0.48a6.34,6.34,0,0,0-3.61.56,3.56,3.56,0,0,0-2.06,3.89,3.6,3.6,0,0,0,3,3.11,8.45,8.45,0,0,0,3.24-.12,0.48,0.48,0,0,0,.3-0.35c0-.7,0-1.4,0-2.1a0.49,0.49,0,0,0-.34-0.32,13.11,13.11,0,0,0-1.41,0,0.33,0.33,0,0,1-.4-0.4c0-.39,0-0.78,0-1.2,0.2,0,.35,0,0.51,0,1.23,0,2.47,0,3.7,0a0.43,0.43,0,0,1,.52.54Q914.59,87,914.61,89.47Z"/><path class="cls-2" d="M901.21,83.42c0,1.25,0,2.5,0,3.75a2.66,2.66,0,0,1-1.6,2.39,8.52,8.52,0,0,1-2.4.73,10.05,10.05,0,0,1-4.67-.34,3.26,3.26,0,0,1-2.46-3.43c0-2.14,0-4.29,0-6.43a0.46,0.46,0,0,1,.58-0.57c0.55,0,1.1,0,1.66,0a0.4,0.4,0,0,1,.5.5c0,2,0,4,0,6a2.37,2.37,0,0,0,2.56,2.65c0.21,0,.42,0,0.63,0a2.33,2.33,0,0,0,2.53-2.49c0.06-2,0-4,0-6,0-.65,0-0.65.68-0.66h1.36c0.66,0,.66,0,0.66.68q0,1.61,0,3.22h0Z"/><path class="cls-2" d="M992.18,90.2a15.4,15.4,0,0,0-1.8,0,1.61,1.61,0,0,1-1.76-.92c-0.93-1.52-2-3-3-4.45-0.08-.12-0.15-0.24-0.25-0.4,0.62,0,1.2,0,1.77-.11a1.83,1.83,0,0,0,1.78-1.68,1.36,1.36,0,0,0-1.38-1.51,26.28,26.28,0,0,0-2.63,0,0.45,0.45,0,0,0-.28.33c0,0.42,0,.84,0,1.27,0,2.31,0,4.61,0,6.92,0,0.45-.14.6-0.58,0.57s-1,0-1.56,0a0.33,0.33,0,0,1-.41-0.39c0-3.3,0-6.59,0-9.89a0.49,0.49,0,0,1,.29-0.37q3.24,0,6.47.1a2.73,2.73,0,0,1,.84.22,2.41,2.41,0,0,1,1.76,2.27,2.56,2.56,0,0,1-1.64,2.76c-0.41.18-.85,0.3-1.34,0.47Z"/><path class="cls-2" d="M863.54,89.82q-2.29-5-4.6-10a0.65,0.65,0,0,0-.48-0.29c-0.76,0-1.53,0-2.29,0a0.78,0.78,0,0,0-.83.49c-1.72,3.24-3.46,6.47-5.19,9.71-0.07.12-.12,0.26-0.22,0.48,0.85,0,1.59,0,2.34,0a0.74,0.74,0,0,0,.82-0.51c0.43-1,.91-1.9,1.35-2.86a0.56,0.56,0,0,1,.6-0.38q1.9,0,3.8,0a0.53,0.53,0,0,1,.58.39c0.35,0.87.73,1.73,1.11,2.6s0.18,0.74,1.11.75h2C863.6,90,863.58,89.9,863.54,89.82Zm-8.18-5.09,1.76-3.51,1.52,3.51h-3.28Z"/><path class="cls-2" d="M840.09,82a2.89,2.89,0,0,0-3-2.56c-1.93,0-3.86,0-5.79,0-0.47,0-.57.18-0.56,0.6,0,1.59,0,3.18,0,4.77v4.82a0.41,0.41,0,0,1,0,0,0.42,0.42,0,0,0,.51.54c0.58,0,1.17,0,1.75,0a0.45,0.45,0,0,0,.56-0.56c0-1.12,0-2.24,0-3.36a0.35,0.35,0,0,1,.41-0.44c0.4,0,.81,0,1.22,0a8,8,0,0,0,2.92-.39A3.09,3.09,0,0,0,840.09,82Zm-3.52,1.8a9.1,9.1,0,0,1-1.83.19c-1.2,0-1.2,0-1.2-1.2,0-.39,0-0.78,0-1.17a0.29,0.29,0,0,1,.35-0.34c0.37,0,.75,0,1.12,0v0a12.35,12.35,0,0,1,1.45.11,1,1,0,0,1,.89,1.05A1.12,1.12,0,0,1,836.58,83.81Z"/><path class="cls-2" d="M878.48,81.68a2.84,2.84,0,0,0-2.8-2.22c-2-.06-4,0-5.94,0-0.45,0-.54.16-0.54,0.57,0,1.61,0,3.22,0,4.83s0,3.19,0,4.78a0.5,0.5,0,0,0,.64.62c0.49,0,1,0,1.46,0,0.7,0,.7,0,0.7-0.68,0-1.06,0-2.11,0-3.17a0.41,0.41,0,0,1,.5-0.5c0.8,0,1.59,0,2.39-.07a4.42,4.42,0,0,0,2.26-.66A3,3,0,0,0,878.48,81.68Zm-3.41,2.1a23.94,23.94,0,0,1-2.84.19,0.4,0.4,0,0,1-.22-0.3c0-.7,0-1.39,0-2.09a0.45,0.45,0,0,1,.32-0.29,10.92,10.92,0,0,1,1.12,0v0a13.49,13.49,0,0,1,1.45.1,1,1,0,0,1,.93,1A1.14,1.14,0,0,1,875.07,83.79Z"/><path class="cls-2" d="M1015.09,90.2c-2.28,0-4.55,0-6.83,0a0.47,0.47,0,0,1-.58-0.58q0-4.78,0-9.55a0.45,0.45,0,0,1,.56-0.55q3.83,0,7.65,0a0.45,0.45,0,0,1,.55.56c0,1.13,0,1.13-1.13,1.13-1.45,0-2.89,0-4.34,0a0.46,0.46,0,0,0-.57.59c0,0.58,0,1.17,0,1.75a0.41,0.41,0,0,0,.5.5c1.41,0,2.83,0,4.24,0a0.43,0.43,0,0,1,.53.52c0,1.27.12,1-1,1s-2.47,0-3.71,0a0.44,0.44,0,0,0-.54.56c0,0.62,0,1.24,0,1.85a0.44,0.44,0,0,0,.54.56c1.69,0,3.38,0,5.07,0l0.36,0C1016.63,90.17,1016.61,90.2,1015.09,90.2Z"/><path class="cls-2" d="M925.26,80c0,0.37,0,.74,0,1.14l-0.63,0c-1.64,0-3.28,0-4.92,0-0.38,0-.52.1-0.5,0.49,0,0.74,0,1.49,0,2.28,0.24,0,.43,0,0.62,0h3.75c1.06,0,.87-0.09.89,0.92,0,0.19,0,.38,0,0.64h-5.26c0,0.94,0,1.83,0,2.72a0.57,0.57,0,0,0,.43.23c1.58,0,3.15,0,4.73,0h0.86c0,0.52,0,1,0,1.47a0.62,0.62,0,0,1-.46.2c-1.4,0-2.79,0-4.19,0-1.2,0-2.4,0-3.61,0a0.39,0.39,0,0,1-.48-0.47q0-4.87,0-9.75a0.39,0.39,0,0,1,.49-0.46q3.9,0,7.8,0A0.4,0.4,0,0,1,925.26,80Z"/><path class="cls-2" d="M888.64,89.08c0,1.31.15,1.11-1.11,1.12-2.34,0-4.68,0-7,0a0.49,0.49,0,0,1-.62-0.6c0-1.59,0-3.18,0-4.78s0-3.18,0-4.77a0.44,0.44,0,0,1,.52-0.54q3.85,0,7.7,0a0.41,0.41,0,0,1,.51.5c0,1.44.16,1.16-1.13,1.18-1.46,0-2.92,0-4.39,0-0.39,0-.56.09-0.54,0.51,0,0.6,0,1.2,0,1.8a0.41,0.41,0,0,0,.51.5c1.4,0,2.79,0,4.19,0a0.47,0.47,0,0,1,.57.59c0,1.2.1,1-1,1q-1.92,0-3.85,0a0.37,0.37,0,0,0-.45.45c0,0.66,0,1.33,0,2a0.41,0.41,0,0,0,.5.5c1.66,0,3.31,0,5,0C888.49,88.5,888.65,88.62,888.64,89.08Z"/><path class="cls-2" d="M849.2,89.06a4.19,4.19,0,0,1-2.46,1.27,10.7,10.7,0,0,1-5-.44,0.52,0.52,0,0,1-.43-0.59c0-.55,0-1.1,0-1.7a13.26,13.26,0,0,0,2,.81,13.47,13.47,0,0,0,2.44.28,1.82,1.82,0,0,0,.91-0.28,1,1,0,0,0,.1-1.77,10.05,10.05,0,0,0-1.66-.78c-0.79-.34-1.62-0.59-2.37-1a2.78,2.78,0,0,1-1.49-3.15,2.67,2.67,0,0,1,1.69-2,7.25,7.25,0,0,1,4.63-.23l0.19,0.05c1.68,0.45,1.74.54,1.52,2.37l-0.47-.24a6.19,6.19,0,0,0-3.65-.78l-0.24,0a1.26,1.26,0,0,0-1.15,1,1.13,1.13,0,0,0,.85,1.17c0.85,0.36,1.73.64,2.59,1a13.25,13.25,0,0,1,1.38.61A2.75,2.75,0,0,1,849.2,89.06Z"/><path class="cls-2" d="M965.18,88.28c-0.08.6-.13,1.13-0.22,1.67a0.33,0.33,0,0,1-.23.2,12.51,12.51,0,0,1-6.3-.3,5.34,5.34,0,0,1-2.51-8.16,6,6,0,0,1,4-2.22,13.54,13.54,0,0,1,4.56.11,0.55,0.55,0,0,1,.36.36c0.09,0.46.12,0.93,0.18,1.46a21.86,21.86,0,0,0-2.27-.32,9,9,0,0,0-2.36.14A3.54,3.54,0,0,0,957.64,85a3.63,3.63,0,0,0,3.08,3.61,10.35,10.35,0,0,0,3.87-.22Z"/><path class="cls-2" d="M981.14,80.12a10.71,10.71,0,0,0,0,1.09h-3c-0.83,0-.74-0.06-0.74.72,0,2.57,0,5.13,0,7.7,0,0.45-.13.6-0.57,0.58a12.22,12.22,0,0,0-1.56,0c-0.46,0-.61-0.12-0.61-0.6,0-2.57,0-5.13,0-7.7,0-.7,0-0.7-0.72-0.7s-1.72,0-2.58,0a0.33,0.33,0,0,1-.4-0.39c0-1.57-.23-1.28,1.21-1.29,2.78,0,5.56,0,8.33,0C981,79.51,981.18,79.65,981.14,80.12Z"/><path class="cls-2" d="M950.21,80.08c0,1.12,0,1.12-1.14,1.12-0.7,0-1.4,0-2.09,0a0.43,0.43,0,0,0-.53.53c0,2.58,0,5.17,0,7.75,0,0.72,0,.72-0.72.72-0.47,0-.94,0-1.41,0s-0.56-.14-0.55-0.56c0-2.45,0-4.91,0-7.36a4.67,4.67,0,0,1,0-.54c0-.43-0.12-0.57-0.55-0.55-1,0-2.07,0-3.19,0a13.15,13.15,0,0,1,0-1.44,0.64,0.64,0,0,1,.48-0.23c1.43,0,2.86,0,4.29,0,1.59,0,3.18,0,4.78,0C950,79.51,950.22,79.6,950.21,80.08Z"/><path class="cls-2" d="M969.8,89.75a0.38,0.38,0,0,1-.46.45q-0.9,0-1.8,0a0.37,0.37,0,0,1-.45-0.45c0-1.2,0-2.41,0-3.61q0-.63,0-1.26t0-1.22c0-1.2,0-2.4,0-3.6a0.43,0.43,0,0,1,.52-0.53c0.58,0,1.17,0,1.75,0a0.36,0.36,0,0,1,.43.43Q969.79,84.85,969.8,89.75Z"/><path class="cls-2" d="M1014.56,77.54a0.43,0.43,0,0,1-.31.25,5,5,0,0,1-.77,0c-1,0-1.19-.3-0.94-1.25a0.35,0.35,0,0,1,.25-0.22c0.58,0,1.15,0,1.79,0C1014.58,76.78,1014.6,77.17,1014.56,77.54Z"/><path class="cls-2" d="M1011.34,77.51a0.45,0.45,0,0,1-.33.28,8.29,8.29,0,0,1-1.36,0,0.5,0.5,0,0,1-.35-0.33c-0.15-1.1-.11-1.13,1-1.13h1.05A10.7,10.7,0,0,1,1011.34,77.51Z"/></g><g class="cls-1"><path class="cls-2" d="M35.1,84.86l-0.55.21L18.17,91.8a1.11,1.11,0,0,1-.93,0L4.11,86.42,0.37,84.89c0,0.15-.07.25-0.09,0.35-0.1.63-.19,1.26-0.29,1.89v2.25C0.09,90,.18,90.68.28,91.32a17.66,17.66,0,0,0,14.37,14.36L16.59,106h2.16a3.63,3.63,0,0,1,.45-0.09,16.23,16.23,0,0,0,7-2.12A17.36,17.36,0,0,0,35.35,88.3C35.37,87.17,35.19,86,35.1,84.86ZM24.14,101a11.06,11.06,0,0,1-12.18.43C8.22,99.32,6.37,96,6.09,91.61l0.45,0.15c0.93,0.4,1.86.81,2.8,1.19a0.92,0.92,0,0,1,.6.68,7.88,7.88,0,0,0,5.9,5.8c0.15,0,.3.06,0.5,0.09-1.61-1.71-1.76-3.21-.48-4.41a2.72,2.72,0,0,1,3.83.14c1.15,1.26.94,2.79-.67,4.28a7.91,7.91,0,0,0,4.32-2.19,7.63,7.63,0,0,0,2.16-3.82A0.82,0.82,0,0,1,26,92.87c1.07-.43,2.12-0.89,3.26-1.37A11.29,11.29,0,0,1,24.14,101Z"/><path class="cls-2" d="M60.88,87.89a3,3,0,0,1-.26-0.15,0.32,0.32,0,0,1,0-.11l0.24-.15a6.58,6.58,0,0,0-.4-11.7,11.43,11.43,0,0,0-5.08-1.1c-4,0-8,0-12,0-0.13,0-.27,0-0.39,0V79h2.84v23.38l0.47,0c3,0,6,0,9,0A16.76,16.76,0,0,0,59,102c3.41-.82,5.7-3,6.12-6.41A7.27,7.27,0,0,0,60.88,87.89ZM51.18,79c0.88,0,1.74,0,2.59,0a15.28,15.28,0,0,1,2.28.15,3.11,3.11,0,0,1,2.69,3,3.15,3.15,0,0,1-2.26,3.37,4.73,4.73,0,0,1-1.37.29c-1.29,0-2.59,0-3.94,0V79ZM56,98c-1.57.19-3.17,0.13-4.82,0.19V90.1A0.26,0.26,0,0,1,51.27,90c1.58,0,3.16,0,4.72.11A3.93,3.93,0,0,1,56,98Z"/><path class="cls-2" d="M93.49,86a12.07,12.07,0,0,0-6.15-9.08,17.87,17.87,0,0,0-8.71-2.2c-3.36-.06-6.71,0-10.07,0-0.12,0-.24,0-0.41,0,0,1.27,0,2.52,0,3.76,0,0.46.12,0.59,0.58,0.57,0.76,0,1.52,0,2.31,0v23.39l0.43,0c2.11,0,4.22,0,6.32,0A21.26,21.26,0,0,0,85,101.28a12.35,12.35,0,0,0,7.51-6.81A15.16,15.16,0,0,0,93.49,86Zm-6,6.5A7.83,7.83,0,0,1,80.35,98a37.71,37.71,0,0,1-4,0V79c2.4,0,4.78-.19,7,0.88a7.75,7.75,0,0,1,4.23,5A12.22,12.22,0,0,1,87.45,92.48Z"/><path class="cls-2" d="M25.23,72.42l-6,9.15L17.89,70.74A16.43,16.43,0,0,1,25.23,72.42Z"/><path class="cls-2" d="M17.49,70.68L16.12,81.57l-6-9.18A17.73,17.73,0,0,1,17.49,70.68Z"/><path class="cls-2" d="M31.48,77.31L22.2,82.73l3.41-10.16A17.7,17.7,0,0,1,31.48,77.31Z"/><path class="cls-2" d="M13.1,82.58L13,82.66,3.91,77.31a17.7,17.7,0,0,1,5.85-4.75Z"/><path class="cls-2" d="M10.8,85.12L0.47,84.45a17.46,17.46,0,0,1,3.17-6.8Z"/><path class="cls-2" d="M34.84,84.45l-10.09.63L24.68,85l7-7.31A16,16,0,0,1,34.84,84.45Z"/></g><g id="_6q7vSB.tif" data-name="6q7vSB.tif" class="cls-1"><path class="cls-2" d="M193.41,55.34a26.88,26.88,0,1,0,25.81,27A27.05,27.05,0,0,0,193.41,55.34Zm-1.09,51.6a24.76,24.76,0,1,1,.52-49.51c13.39,0.05,24.38,11.31,24.32,24.92A24.72,24.72,0,0,1,192.32,106.94Z"/><path class="cls-2" d="M178.23,82.47L178,82.14c1.72-2.4-.11-4.36-2.32-4.25-1.81.09-3.63,0-5.45,0a0.84,0.84,0,0,0-1.05,1c0.07,2.32.1,4.64,0.12,7a0.58,0.58,0,0,0,.66.72c2.12,0,4.24.06,6.34,0A2.48,2.48,0,0,0,178.23,82.47ZM172.07,80c1.19-.05,2.38-0.06,3.57,0a2,2,0,0,1,.78.55,2.18,2.18,0,0,1-.77.57,11.78,11.78,0,0,1-1.78,0v0a12.81,12.81,0,0,1-1.78,0,0.83,0.83,0,0,1-.55-0.59A0.78,0.78,0,0,1,172.07,80Zm3.52,4.48a4,4,0,0,1-.69.05h-1.25a7.19,7.19,0,0,1-1.44,0,1,1,0,0,1-.6-0.66,0.83,0.83,0,0,1,.57-0.57,30.5,30.5,0,0,1,3.48,0,2.08,2.08,0,0,1,.8.64A2.62,2.62,0,0,1,175.58,84.49Z"/><path class="cls-2" d="M196.25,63.31a2.51,2.51,0,0,0,.41-3A2.68,2.68,0,0,0,194,59.1c-1.76,0-3.51,0-5.27,0a0.64,0.64,0,0,0-.78.78c0,2.32,0,4.64,0,7a0.78,0.78,0,0,0,.93,1c1.76,0,3.51,0,5.27,0a2.8,2.8,0,0,0,2.7-1.57A2.39,2.39,0,0,0,196.25,63.31Zm-5.47-2.08a9.28,9.28,0,0,1,1.6,0,8.61,8.61,0,0,1,1.6,0,2.2,2.2,0,0,1,.74.6,1.84,1.84,0,0,1-.69.64,27.18,27.18,0,0,1-3.29,0,0.83,0.83,0,0,1-.5-0.64A0.84,0.84,0,0,1,190.78,61.23Zm3.05,4.47a6.71,6.71,0,0,1-1.51,0h0a7.06,7.06,0,0,1-1.51,0,1,1,0,0,1-.57-0.68,0.87,0.87,0,0,1,.59-0.52,23.41,23.41,0,0,1,3,0,2.29,2.29,0,0,1,.86.58A2.85,2.85,0,0,1,193.83,65.7Z"/><path class="cls-2" d="M195.67,95.89c-2.21,0-4.41,0-6.62,0-0.53,0-.94-0.09-0.93-0.77,0-2.59,0-5.18,0-7.92h7.95c0.75,0,.51.59,0.54,1s0.05,1.07-.71,1.07l-3.84,0h-0.81c-0.43,0-.89,0-0.88.62s0.5,0.57.92,0.58c1.46,0,2.92,0,4.38,0a0.84,0.84,0,0,1,1,1,0.83,0.83,0,0,1-1,1c-1.46,0-2.92,0-4.38,0-0.42,0-.9,0-0.9.6s0.49,0.58.9,0.58c1.46,0,2.92,0,4.38,0,1,0,.93.6,1,1.28S196.37,95.9,195.67,95.89Z"/><path class="cls-2" d="M194.94,102.18c0.38-.2.65-0.32,0.9-0.48a3,3,0,0,0,1.25-3.19,2.47,2.47,0,0,0-2.64-1.81c-1.76,0-3.52,0-5.27,0a0.85,0.85,0,0,0-1.06,1q0.07,3.35,0,6.7a0.85,0.85,0,0,0,1.05,1c1.2,0,1.2,0,1.2-1.15,0-.24,0-0.48,0-0.71,0-1.16.13-1.31,1.27-1.25a1.46,1.46,0,0,1,.88.46c0.46,0.5.85,1.07,1.27,1.61a2.64,2.64,0,0,0,3.42.77Zm-0.87-2.07a8,8,0,0,1-1.68,0v0c-0.42,0-.83,0-1.24,0s-0.77,0-.78-0.58a0.68,0.68,0,0,1,.76-0.84c1,0,2,0,2.93,0a2.24,2.24,0,0,1,.84.59A2.5,2.5,0,0,1,194.06,100.12Z"/><path class="cls-2" d="M215.28,82.3a2.5,2.5,0,0,0,.7-2.78,2.29,2.29,0,0,0-2.13-1.77c-1.87-.06-3.75,0-5.63,0a0.61,0.61,0,0,0-.73.68c0,2.44,0,4.89,0,7.33a0.84,0.84,0,0,0,.46.63c1.25,0.4,1.75,0,1.74-1.25a2.71,2.71,0,0,1,0-.8,1.61,1.61,0,0,1,.51-0.95,1.72,1.72,0,0,1,1.21.4,9.65,9.65,0,0,1,1.15,1.47c0.94,1.25,1.69,1.48,3.39,1l-2.25-2.91A11.61,11.61,0,0,0,215.28,82.3Zm-2-1.2a22.8,22.8,0,0,1-3,0,0.82,0.82,0,0,1-.51-0.64,1,1,0,0,1,.59-0.67,6.26,6.26,0,0,1,1.42,0h0a7.86,7.86,0,0,1,1.51,0,0.87,0.87,0,0,1,.57.62A0.86,0.86,0,0,1,213.32,81.09Z"/><path class="cls-2" d="M205.93,85.21c0,0.53.17,1.22-.74,1.22-2.12,0-4.23,0-6.35,0a0.57,0.57,0,0,1-.66-0.71c0-1.19,0-2.38,0-3.58h0c0-1.19,0-2.39,0-3.58a0.69,0.69,0,0,1,.79-0.82h6.17c0.9,0,.74.66,0.78,1.21a0.67,0.67,0,0,1-.79.87c-1.25,0-2.5,0-3.76,0-0.51,0-1,0-.94.73s0.53,0.49.93,0.49c1.22,0,2.44,0,3.66,0,0.81,0,.9.46,0.91,1.1a0.79,0.79,0,0,1-1,.95c-1.22,0-2.44,0-3.67,0-0.43,0-.86,0-0.88.61s0.4,0.7.89,0.7c1.28,0,2.57,0,3.85,0C205.84,84.3,206,84.66,205.93,85.21Z"/><path class="cls-2" d="M197.58,76.26c-1-2.09-2.15-4.13-3.06-6.26a2.17,2.17,0,0,0-2.59-1.54,1.25,1.25,0,0,0-1.18.74c-1.09,2.35-2.22,4.69-3.33,7a6.91,6.91,0,0,0-.26.8c1.47,0.52,2,.3,2.81-0.85a1.26,1.26,0,0,1,.87-0.46c1-.06,1.91,0,2.86,0a1.29,1.29,0,0,1,1.47.87,1,1,0,0,0,.6.55,20.87,20.87,0,0,0,2.18,0C197.77,76.74,197.7,76.49,197.58,76.26Zm-6.53-2.48,1.28-3.08,1.41,2.93Z"/><path class="cls-2" d="M189.35,85.84c-1.29-2.45-2.62-4.88-3.88-7.34-0.46-.91-1.22-0.49-1.87-0.59a1,1,0,0,0-1.12.64c-1.21,2.46-2.45,4.9-3.67,7.35a4.1,4.1,0,0,0-.18.69,14.85,14.85,0,0,0,1.69,0,1.1,1.1,0,0,0,.8-0.4c0.35-1,1.14-1.07,2-1s1.73,0,2.59,0a1.39,1.39,0,0,1,.91.4c0.87,1.07,1.32,1.24,2.9.82A3.73,3.73,0,0,0,189.35,85.84ZM182.68,83L184,80.36,185.38,83h-2.7Z"/><path class="cls-2" d="M198,78c-0.21.3-.4,0.59-0.61,0.85-1.06,1.25-2.17,2.46-3.15,3.77a4.31,4.31,0,0,0-.48,1.73,5.13,5.13,0,0,0,0,1c0,1.13-.09,1.2-1.21,1.21-0.75,0-1.14-.26-1-1a4.11,4.11,0,0,0-1.46-3.87c-1.18-1.08-2.18-2.34-3.44-3.73,1.58-.15,2.84-0.42,3.79.94a28.26,28.26,0,0,0,2.2,2.47l2.09-2.59A2.58,2.58,0,0,1,198,78Z"/><path class="cls-2" d="M173.89,84.52h0Z"/></g><g id="BSatg8.tif" class="cls-1"><path class="cls-2" d="M693.38,76.15A5.11,5.11,0,0,0,691.54,79c-1.14-1.18-1.08-3.54,0-5a9.51,9.51,0,0,0,1-1.93,1.36,1.36,0,0,0-.51-1.75,1.28,1.28,0,0,0-1.71.35,11,11,0,0,0-3,5.83,12.08,12.08,0,0,0,.43,5.55c0.13,0.48.26,1,.41,1.45a5.26,5.26,0,0,1-.34,4.78c1,0,1.88,0,2.74,0a0.78,0.78,0,0,1,1,.94c0,1.43,0,1.43-1.43,1.43q-12.19,0-24.38,0a1.87,1.87,0,0,1-1.19-.27,4.28,4.28,0,0,1,0-1.79,1.16,1.16,0,0,1,.8-0.27c2.27,0,4.54,0,6.81,0,1.82,0,2.39-1,1.48-2.63a8.09,8.09,0,0,0-.61-0.92c-1.15-1.53-2.06-3.13-1.74-5.28a10.08,10.08,0,0,0-4.26.93,6.41,6.41,0,0,1-.93.43,1.11,1.11,0,0,1-1.55-.67,0.6,0.6,0,0,0-.13-0.28c-1.21-.84-1-1.81-0.17-2.74a1.77,1.77,0,0,1,1.18-.71,19.7,19.7,0,0,0,6.91-.12l0.23,0.32-1.54,1a6.49,6.49,0,0,0,4.12.37l-0.94,1.26c1.13,0.88,2.36.7,3.73,0.22l-0.53,1.25,3.19-.52c-0.07.2-.14,0.41-0.23,0.61a8.18,8.18,0,0,0-.6,4.34,3.47,3.47,0,0,0,4.36,3.08,2.73,2.73,0,0,0,2.06-2.61,9.6,9.6,0,0,0-.37-2.48A13.24,13.24,0,0,1,689,70.09a3,3,0,0,1,2.69-1.23c1.79,0.24,2.59,1.54,2.33,3.55a5.39,5.39,0,0,0,.11,1.76A2,2,0,0,1,693.38,76.15Z"/><path class="cls-2" d="M685.37,66.29c-0.61-1.06-.63-1-1.58-0.33a5.45,5.45,0,0,1-.48.28,18.4,18.4,0,0,0,1.09-1.69,0.77,0.77,0,0,0-.9-1.19,10.56,10.56,0,0,0-1.48.47l0.66-.73a5.61,5.61,0,0,0-3.78-1,9.05,9.05,0,0,0-4,1.6,1.4,1.4,0,0,0-.24.68,2.91,2.91,0,0,0,.64,0,3.61,3.61,0,0,0,.64-0.27c-1.25,1.19-1.38,1.61-.65,2.41a1.5,1.5,0,0,0,.25-0.17,1.7,1.7,0,0,1,2.14-.49,2.24,2.24,0,0,1,1.17,2.17,1.38,1.38,0,0,1-1,1.35,1.16,1.16,0,0,1-1.43-.69,1.89,1.89,0,0,0-.28-0.33h-0.25a4.4,4.4,0,0,0-.11,1.8,1.84,1.84,0,0,0,1.35.72c1.32,0.15,2.1-.69,2.7-1.92-0.45,2.4-2.62,3.49-4.38,2.21a2.92,2.92,0,0,0-2.82-.65,1.93,1.93,0,0,1-.47,0c-1.09.06-1.35,0.53-.66,1.41a10.53,10.53,0,0,0,1.74,1.41l-2.2.37a1.52,1.52,0,0,0,2.32,1.17c0.45-.23.93-0.42,1.39-0.63l0.11,0.19c-1.54.43-1.49,2-2.42,3,1.7,0.39,2.91-.31,4.09-1.52l-1.28,3.14c1.38,0.64,2.61-.12,3.67-2.25l0.22,0-0.54,3a2.38,2.38,0,0,0,2.58-2,9.68,9.68,0,0,0-.06-1.72c0-.36,0-0.71.05-1.07,0.48,1.36,1.42,2.66.18,4.14,1.89-.55,2.61-2,2-3.55a3.42,3.42,0,0,1-.34-1,8.55,8.55,0,0,1,.19-1.47l1.16,3.45a2.66,2.66,0,0,0,.32-0.34,3,3,0,0,0,0-3.55,2.55,2.55,0,0,1-.37-2.53l1.56,3.54a9.2,9.2,0,0,0,.38-0.88A8,8,0,0,0,685.37,66.29Zm-7.14-2.89,1.42-.13C678.52,64.09,678.52,64.09,678.23,63.41Z"/><path class="cls-2" d="M706.81,73.56c-2.57-.21-5.16-0.11-7.74-0.13a1.21,1.21,0,0,0-.35.1c1.5,0.5,1.43,1.7,1.43,2.89,0,3.72,0,7.44,0,11.16,0,1.2,0,2.37-1.37,2.92H704c-1.39-1.06-1.44-1.16-1.44-2.9,0-1,0-2.06,0-3.09a0.62,0.62,0,0,1,.77-0.77,28.22,28.22,0,0,0,3.31,0,4.9,4.9,0,0,0,4.74-5A4.75,4.75,0,0,0,706.81,73.56ZM709,79.71a3,3,0,0,1-2.55,2.66c-0.72.15-1.46,0.18-2.19,0.26-2.1-.11-1.75.14-1.77-1.83,0-1.77,0-3.53,0-5.3a0.77,0.77,0,0,1,.92-0.94c1,0.05,2,0,3,.16a2.73,2.73,0,0,1,2.44,2.18A8.68,8.68,0,0,1,709,79.71Z"/><path class="cls-2" d="M761.55,90.17a0.56,0.56,0,0,1-.41.36c-3.63,0-7.27,0-11-.06,1.72-.81,1.55-2.32,1.54-3.77,0-3.3,0-6.6,0-9.9,0-1.3-.1-2.5-1.52-3.14l0.1-.18h10.89V76a0.53,0.53,0,0,1-.26,0c-0.71-1.21-1.89-1.32-3.1-1.31-1,0-2,.08-3,0.1a0.56,0.56,0,0,0-.66.66q0,2.65,0,5.3a0.55,0.55,0,0,0,.66.65c1.08,0,2.17,0,3.24,0a5.11,5.11,0,0,0,1.29-.46v2.1a18,18,0,0,0-2.14-.31c-1,0-1.94.06-2.9,0.1,0,1-.12,2-0.14,3s0,1.85,0,2.77a0.63,0.63,0,0,0,.71.78c0.87,0,1.74.12,2.6,0.13,2,0,2.44-.13,4.12-1.45C761.57,88.73,761.59,89.45,761.55,90.17Z"/><path class="cls-2" d="M735.68,86.47c-0.21,2.38-1.26,3.61-3.29,4.09a10.7,10.7,0,0,1-6.38-.41c-3.41-1.3-5-4-5.31-7.47a11.92,11.92,0,0,1,.19-3.14,7.39,7.39,0,0,1,7.37-6.28c1,0,2,.1,3,0.13,0.57,0,1.14,0,1.76,0V76a2.23,2.23,0,0,1-.52-0.28c-2-2.08-6.11-1.41-7.81,1-2.13,3-1.82,8.22.63,10.84,2.61,2.78,7,2.1,9,.28C734.76,87.51,735.14,87,735.68,86.47Z"/><path class="cls-2" d="M776.78,75a4,4,0,0,1-.1,1c-1.24-2.08-3.19-1.15-4.85-1.25a1.14,1.14,0,0,0-.43.81c0,2.87,0,5.75,0,8.62,0,1,0,1.9,0,2.85,0,1.34-.12,2.69,1.4,3.46h-5.28c1.51-.75,1.4-2.1,1.39-3.44q0-5.85,0-11.71a0.54,0.54,0,0,0-.65-0.65c-0.45,0-.9,0-1.34,0-1.27,0-2.59-.19-3.23,1.44l-0.19-.16c0-.77,0-1.55,0-2.32a0.73,0.73,0,0,1,.55-0.25c3.66,0,7.33,0,11,0h0.16C776.78,73.39,776.78,73.39,776.78,75Z"/><path class="cls-2" d="M748.22,73.43v2.45a0.33,0.33,0,0,1-.13,0c-0.7-1.16-1.78-1.29-3-1.25-2.18.08-2.18,0-2.18,2.17,0,3.56,0,7.12,0,10.68a2.88,2.88,0,0,0,1.41,2.95h-5.21c1.54-.81,1.39-2.24,1.38-3.61,0-3.61,0-7.23,0-10.84,0-1.42.12-1.29-1.34-1.32h-0.79c-1.29,0-2.65-.23-3.3,1.46l-0.18-.19c0-.77,0-1.54,0-2.31a0.61,0.61,0,0,1,.47-0.25q6.37,0,12.73,0A0.66,0.66,0,0,1,748.22,73.43Z"/><path class="cls-2" d="M718.58,90.5h-5c1.37-.6,1.36-1.76,1.36-3q0-5.62,0-11.23c0-1.18-.14-2.23-1.42-2.8h5.08l0.16,0.17c-1.59.34-1.59,1.48-1.59,2.67q0,5.62,0,11.23C717.21,88.77,717.16,89.95,718.58,90.5Z"/><path class="cls-2" d="M670.1,73l0.65,2-0.08.17a25.92,25.92,0,0,1-2.82-2,2.71,2.71,0,0,0-2.17-.84,1.88,1.88,0,0,1-2.08-2.4,3.06,3.06,0,0,1,1.35-1.73,2.43,2.43,0,0,1,1.84.23c1.16,0.55,2.25,1.26,3.35,1.92a1,1,0,0,1,.38.46c0.33,0.77.63,1.55,1,2.39Z"/><path class="cls-2" d="M675.22,96.63a5.7,5.7,0,0,0-.66-1.5,1.41,1.41,0,0,0,0-2.06,2.41,2.41,0,0,0-2.86,0,1.37,1.37,0,0,0-.1,2,6.11,6.11,0,0,0-.59,1.81c0,0.94,1,1.33,2.62,1.21A1.53,1.53,0,0,0,675.22,96.63Zm-2.07-3a1,1,0,0,1,.59.64,0.6,0.6,0,0,1-.16.4,0.45,0.45,0,0,1-.72,0,1.7,1.7,0,0,1-.35-0.57A0.92,0.92,0,0,1,673.15,93.59Zm0.3,3.66a0.45,0.45,0,0,1-.7,0,2,2,0,0,1-.45-0.74,1.22,1.22,0,0,1,.52-0.66,5.71,5.71,0,0,1,.76.54,0.45,0.45,0,0,1,.06.64Z"/><path class="cls-2" d="M682.78,94.27a2,2,0,0,0-1.91-1.68,1.91,1.91,0,0,0-2,1.65,7.24,7.24,0,0,0,0,2.56,1.6,1.6,0,0,0,1.84,1.36,1.73,1.73,0,0,0,2-1.32,10.66,10.66,0,0,0,.25-1.33A12.23,12.23,0,0,0,682.78,94.27Zm-1.28,2.37a1.07,1.07,0,0,1-.69.59,0.83,0.83,0,0,1-.65-0.51,14.91,14.91,0,0,1,0-2.58,0.89,0.89,0,0,1,.66-0.53,0.8,0.8,0,0,1,.61.47,7.31,7.31,0,0,1,.23,1.31A4.56,4.56,0,0,1,681.5,96.64Z"/><path class="cls-2" d="M690,96.45A1.56,1.56,0,0,1,688.84,98a8.55,8.55,0,0,1-2.19,0,1.15,1.15,0,0,1-.38-0.47,1.49,1.49,0,0,1,.54-0.3c0.33,0,.68.12,1,0.1a0.94,0.94,0,0,0,1-.92,1,1,0,0,0-.81-1.1,10.52,10.52,0,0,0-1.43-.11c0-.74,0-1.47,0-2.19a0.71,0.71,0,0,1,.54-0.39c0.65-.05,1.32,0,2,0,0.9,0,.92,0,0.74,1a10.76,10.76,0,0,0-1.53-.06,1.82,1.82,0,0,0-.67.43,1.85,1.85,0,0,0,.59.43A1.86,1.86,0,0,1,690,96.45Z"/><path class="cls-2" d="M667,92.67v5.43h-1.36V93.46Z"/><path class="cls-2" d="M678.42,67.56a3.19,3.19,0,0,1-.6.23c-0.77.14-1.56,0.2-2.32,0.38-1.48.34-2.51,0-2.94-1,1.29-.1,2.58-0.21,3.87-0.29A6.62,6.62,0,0,1,678,67,1.36,1.36,0,0,1,678.42,67.56Z"/><path class="cls-2" d="M664,76.48c-0.21.49-.21,0.49-1.76,1.34C662.14,76.88,662.87,76.32,664,76.48Z"/><path class="cls-2" d="M662.11,80.11c-0.47-1-.18-1.54.86-2C663.6,79.18,662.41,79.36,662.11,80.11Z"/><path class="cls-2" d="M663.53,68.68c-0.12.47-.12,0.47-1.7,1.27C661.85,68.94,662.41,68.55,663.53,68.68Z"/><path class="cls-2" d="M665.11,67.67a4.5,4.5,0,0,1-1.05.54,3.69,3.69,0,0,1-1.06-.1C663.15,67.24,663.84,67,665.11,67.67Z"/><path class="cls-2" d="M663.8,80.15l-0.57,1.32c-0.73-.6-0.74-1-0.06-1.9Z"/><path class="cls-2" d="M664.86,82.35a1,1,0,0,1-.81-1.62C664.91,80.94,664.89,81.61,664.86,82.35Z"/><path class="cls-2" d="M662.28,71.87c-0.48-1-.28-1.4.67-1.71C663.7,71.17,662.36,71.13,662.28,71.87Z"/><path class="cls-2" d="M683.32,62.46a1.66,1.66,0,0,1-.69.18,4.86,4.86,0,0,1-1-.43c0-.09,0-0.19,0-0.28a4.88,4.88,0,0,1,1.2-.07A1.42,1.42,0,0,1,683.32,62.46Z"/><path class="cls-2" d="M663.53,71.53c0,0.57-.06,1.15-0.09,1.82-0.89-.6-0.91-1.1-0.21-1.84Z"/><path class="cls-2" d="M678.23,63.41l1.42-.13C678.52,64.09,678.52,64.09,678.23,63.41Z"/></g><g id="hh7SiX.tif" class="cls-1"><path class="cls-2" d="M335.45,73.8h-3.87a11.77,11.77,0,0,0-5.41-10,11.38,11.38,0,0,0-7-1.83,3.79,3.79,0,0,0,.65.72c0.22,0.24.45,0.46,0.69,0.69L321.21,64l-3.72,3.8-4-4a11.9,11.9,0,0,0-3.75,3.69l4,4.06c-0.12.24-2.94,3.1-3.62,3.68L308,73.15c-0.39,1.08.27,4.47,1.2,6.2A12.76,12.76,0,0,0,313.57,84a10.91,10.91,0,0,0,6.08,1.74v3.77l-0.31,0a14.84,14.84,0,0,1-9.71-3.68,16,16,0,0,1-4.69-6.67,15.32,15.32,0,0,1-.91-5.42,15.69,15.69,0,0,1,.45-3.75,0.48,0.48,0,0,0-.16-0.52l-4.83-4.82-0.57-.58,3.77-3.68,4.25,4.31a18.69,18.69,0,0,1,3.68-3.7l-4.32-4.37L310,52.84l0.35,0.34q2.55,2.55,5.09,5.1a0.57,0.57,0,0,0,.61.18,16.08,16.08,0,0,1,6.66-.14,14.65,14.65,0,0,1,7,3.38,18.07,18.07,0,0,1,3.51,4,14.36,14.36,0,0,1,2.17,6.14c0.06,0.53.09,1.06,0.13,1.59C335.45,73.52,335.45,73.63,335.45,73.8Z"/><path class="cls-2" d="M413,100.7v0.41a0.78,0.78,0,0,1-.17,0l-3,0h-0.21a0.21,0.21,0,0,1-.23-0.24c0-.09,0-0.19,0-0.28,0-2.92,0-5.85,0-8.77a4.31,4.31,0,0,0-.12-1A1.65,1.65,0,0,0,407,89.54a2.67,2.67,0,0,0-1.46.94,5.35,5.35,0,0,0-1.36,3.24c0,0.38,0,.76,0,1.15q0,2.85,0,5.71c0,0.57,0,.57-0.58.57H401c-0.42,0-.43,0-0.43-0.43q0-4.37,0-8.73a4.12,4.12,0,0,0-.21-1.4,1.48,1.48,0,0,0-1.21-1.07,2.49,2.49,0,0,0-1.91.48A4,4,0,0,0,396,91.66a6.52,6.52,0,0,0-.55,2.67c0,2.1,0,4.2,0,6.3,0,0.51,0,.51-0.52.51h-2.78c-0.24,0-.27-0.05-0.28-0.3,0-.07,0-0.14,0-0.21q0-6.52,0-13c0-.5,0-0.5.5-0.5h2.37c0.45,0,.46,0,0.44.48s0,0.93-.06,1.39c0,0.12,0,.25,0,0.42a0.45,0.45,0,0,0,.3-0.31,4.9,4.9,0,0,1,1.34-1.58,4.84,4.84,0,0,1,2.66-.92,5.62,5.62,0,0,1,2.06.2,3.3,3.3,0,0,1,2.23,2.17l0.18,0.49a0.56,0.56,0,0,0,.29-0.32,5,5,0,0,1,2.44-2.19,5.88,5.88,0,0,1,2.74-.33,4.61,4.61,0,0,1,1.44.36,3.21,3.21,0,0,1,1.58,1.45,4.73,4.73,0,0,1,.55,1.93c0,0.57.07,1.13,0.07,1.7Q413,96.36,413,100.7Z"/><path class="cls-2" d="M343.38,82q0,9.31,0,18.61c0,0.51,0,.51-0.52.51h-2.71l-0.35,0v-0.46q0-3.74,0-7.48c0-.6,0-0.61-0.59-0.61H331.9c-0.56,0-.56,0-0.56.56q0,3.76,0,7.51v0.48h-3.49c-0.25,0-.27,0-0.28-0.28s0-.42,0-0.63q0-9.1,0-18.2c0-.56,0-0.53.53-0.53h3a0.21,0.21,0,0,1,.26.24c0,0.1,0,.21,0,0.31q0,3.43,0,6.85c0,0.53,0,.53.54,0.53h7.48c0.41,0,.43,0,0.43-0.44q0-3.51,0-7c0-.48,0-0.48.48-0.48h2.89a0.19,0.19,0,0,1,.22.21C343.38,81.83,343.38,81.93,343.38,82Z"/><path class="cls-2" d="M360.66,93.58a8.87,8.87,0,0,0-.5-3.37A5.1,5.1,0,0,0,357,87a7.65,7.65,0,0,0-2.07-.43,8.83,8.83,0,0,0-3.37.3,7,7,0,0,0-4.22,3.84,7.5,7.5,0,0,0-.71,3.09,10.24,10.24,0,0,0,.56,4.07,5.14,5.14,0,0,0,3,3.06,7.55,7.55,0,0,0,2.47.53,9.05,9.05,0,0,0,2.69-.18,6.77,6.77,0,0,0,4.64-3.87A8,8,0,0,0,360.66,93.58Zm-3.94,2.3a4.16,4.16,0,0,1-.52,1.32,2.54,2.54,0,0,1-1.71,1.2,3.35,3.35,0,0,1-2.75-.52,3.29,3.29,0,0,1-1.18-1.95,6.94,6.94,0,0,1-.21-2,6.39,6.39,0,0,1,.28-2.17,3.49,3.49,0,0,1,.65-1.22,2.72,2.72,0,0,1,1.41-.9,3.82,3.82,0,0,1,1.92,0A2.6,2.6,0,0,1,356.35,91a4.94,4.94,0,0,1,.48,1.62A9.21,9.21,0,0,1,356.72,95.88Z"/><path class="cls-2" d="M380.69,100.88a10.83,10.83,0,0,1-2.26.53,9.73,9.73,0,0,1-3.52-.15,5.16,5.16,0,0,1-4-4.1,12.53,12.53,0,0,1-.18-4.49,8.3,8.3,0,0,1,.85-2.92A5.55,5.55,0,0,1,374.93,87a8.72,8.72,0,0,1,3.15-.42c0.69,0,1.38.15,2.07,0.23l0.52,0.06c0.25,0,.31.1,0.28,0.34q-0.13,1.21-.28,2.42a3.72,3.72,0,0,1-.1.41l-0.73-.11c-0.54-.1-1.07-0.24-1.61-0.29a3.16,3.16,0,0,0-3.34,1.79,5.19,5.19,0,0,0-.45,1.78,8.17,8.17,0,0,0,.12,2.59,3,3,0,0,0,2.72,2.54,3.44,3.44,0,0,0,1.31-.08l1.9-.41,0.23,0c0,0.25,0,.47.05,0.7,0.06,0.67.12,1.34,0.17,2C381,100.75,381,100.78,380.69,100.88Z"/><path class="cls-2" d="M367.46,85.51v15.09c0,0.54,0,.54-0.53.54h-2.82l-0.19,0c0-.12,0-0.23,0-0.34q0-10.21,0-20.41c0-.07,0-0.14,0-0.21a0.2,0.2,0,0,1,.22-0.21h3c0.34,0,.35,0,0.35.36Q367.46,82.91,367.46,85.51Z"/><path class="cls-2" d="M387.65,87.61v13c0,0.53,0,.53-0.54.53h-2.78l-0.19,0c0-.15,0-0.27,0-0.4q0-6.59,0-13.18s0-.09,0-0.14c0-.3,0-0.34.35-0.34h2.89c0.25,0,.28,0,0.29.28C387.65,87.44,387.65,87.53,387.65,87.61Z"/><path class="cls-2" d="M388,83.61a1.66,1.66,0,0,1-1.21,1.14,3.65,3.65,0,0,1-1.55,0,1.67,1.67,0,0,1-1.45-1.35,3.47,3.47,0,0,1,0-1.82,1.7,1.7,0,0,1,1.6-1.28c0.16,0,.32,0,0.49,0v0a7.66,7.66,0,0,1,.89.13,1.65,1.65,0,0,1,1.23,1.2A3.27,3.27,0,0,1,388,83.61Z"/></g><g id="XtuhxI.tif" class="cls-1"><path class="cls-2" d="M276.11,0l-0.29.69L273,7q-1.35,3.07-2.68,6.15a0.4,0.4,0,0,1-.44.28h-5c-0.36,0-.36,0-0.36.36q0,6,0,12a2.16,2.16,0,0,1-.19.91q-1.4,3.16-2.79,6.33l-0.13.32h10.69c0,0.13-.07.22-0.1,0.3-0.78,1.77-1.57,3.54-2.35,5.32a0.34,0.34,0,0,1-.39.21H243.45L244,38l4.15-9.41,5-11.43,3.47-7.88L260.29,1c0.12-.27.23-0.55,0.37-0.81A0.33,0.33,0,0,1,260.88,0a4.79,4.79,0,0,1,.56,0h14.66Z"/><path class="cls-2" d="M291.29,24.63q-2.17-5-4.32-10a0.36,0.36,0,0,0-.39-0.25h-6.17a0.34,0.34,0,0,0-.37.24q-2,4.79-4,9.59c-0.07.16-.14,0.32-0.22,0.48a0.48,0.48,0,0,1,0-.24c0-.79,0-1.58,0-2.37a0.24,0.24,0,0,0-.29-0.3c-1.6,0-3.19,0-4.78,0h-0.31V14.65c0-.19,0-0.29-0.25-0.29-1.47,0-2.95,0-4.43,0-0.16,0-.21,0-0.21.21q0,5,0,10.06v0.24h14.85a0.27,0.27,0,0,0,.3-0.22c0.21-.62.43-1.22,0.63-1.84a0.26,0.26,0,0,1,.28-0.21h3.63a0.28,0.28,0,0,1,.31.21c0.21,0.61.44,1.21,0.65,1.81a0.31,0.31,0,0,0,.36.25h4.85C291.34,24.78,291.32,24.7,291.29,24.63Zm-9.22-4.58,1.36-3.4c0.46,1.16.9,2.26,1.37,3.4h-2.73Z"/><path class="cls-2" d="M332.33,22.07a2.42,2.42,0,0,0-1.08-1.55,13.51,13.51,0,0,0-1.31-.59l0.2-.05a11,11,0,0,0,1.31-.51,2.48,2.48,0,0,0,1-3.42A2.64,2.64,0,0,0,331,14.82a7.7,7.7,0,0,0-2.73-.44h-8a0.22,0.22,0,0,0-.27.27q0,5,0,10a0.23,0.23,0,0,0,.28.28h4.61V24.52c0-1,0-1.93,0-2.9a0.25,0.25,0,0,1,.31-0.3l1.18,0a1.1,1.1,0,0,1,1.08.8,8.13,8.13,0,0,1,.22.87c0.1,0.54.18,1.08,0.26,1.62a0.25,0.25,0,0,0,.31.25H333C332.79,23.92,332.57,23,332.33,22.07Zm-5.22-3.25a6.07,6.07,0,0,1-1,.12c-0.38,0-.76,0-1.15,0a0.19,0.19,0,0,1-.23-0.23c0-.25,0-0.49,0-0.74v-1c0-.11,0-0.2.16-0.19,0.71,0,1.42,0,2.13.1a0.93,0.93,0,0,1,.89,1.11A0.92,0.92,0,0,1,327.11,18.83Z"/><path class="cls-2" d="M318.48,24.51L317,21l-2.76-6.44a0.32,0.32,0,0,0-.32-0.25h-6.26a0.29,0.29,0,0,0-.32.2l-4.23,10c0,0.08-.06.16-0.1,0.26h4.67a0.22,0.22,0,0,0,.24-0.19c0.22-.62.43-1.25,0.64-1.87a0.26,0.26,0,0,1,.28-0.21h3.65a0.24,0.24,0,0,1,.27.19c0.22,0.62.46,1.23,0.68,1.85a0.28,0.28,0,0,0,.32.22h4.86C318.57,24.73,318.53,24.62,318.48,24.51ZM309.33,20c0.45-1.13.9-2.23,1.34-3.34h0.06L312.05,20h-2.73Z"/><path class="cls-2" d="M347.24,24.25a0.26,0.26,0,0,1-.24.3,21.06,21.06,0,0,1-6.12.46,8.74,8.74,0,0,1-4.24-1.32,4.92,4.92,0,0,1-1.34-6.93,6,6,0,0,1,3-2,12.91,12.91,0,0,1,4.58-.55,22.41,22.41,0,0,1,3.49.31c0.37,0.07.37,0.06,0.37,0.44q0,1.09,0,2.19v0.3l-0.29-.1a8.25,8.25,0,0,0-5-.22,2.6,2.6,0,0,0-1.86,1.56,3,3,0,0,0,.23,2.71,2.26,2.26,0,0,0,1.92,1c0.35,0,.7,0,1.06,0a0.2,0.2,0,0,0,.22-0.23c0-.33,0-0.66,0-1a0.15,0.15,0,0,0-.18-0.18,6.47,6.47,0,0,1-.68,0,0.24,0.24,0,0,1-.18-0.14c0-.62,0-1.24,0-1.88l0.25,0H347a0.22,0.22,0,0,1,.27.26Q347.23,21.72,347.24,24.25Z"/><path class="cls-2" d="M360.85,24.89H350.3A0.24,0.24,0,0,1,350,24.6q0-5,0-10a0.23,0.23,0,0,1,.28-0.28h10.45a0.21,0.21,0,0,1,.26.26q0,1,0,2c0,0.21-.07.26-0.27,0.26h-5.65c-0.22,0-.31.06-0.29,0.29a7.87,7.87,0,0,1,0,.89c0,0.21.07,0.27,0.27,0.27h5.32c0.35,0,.35,0,0.35.35q0,0.94,0,1.88c0,0.33,0,.33-0.32.33h-5.3c-0.32,0-.32,0-0.32.33s0,0.55,0,.82,0.05,0.24.24,0.24h5.74c0.35,0,.35,0,0.35.34,0,0.64,0,1.29,0,1.93A0.23,0.23,0,0,1,360.85,24.89Z"/><path class="cls-2" d="M303.39,16.61c0,0.33,0,.33-0.32.33h-5.32c-0.33,0-.33,0-0.33.34s0,0.71,0,1.06,0.06,0.27.27,0.27h5c0.51,0,.51,0,0.51.51s0,1.15,0,1.72c0,0.34,0,.34-0.33.34H297.7c-0.23,0-.29.07-0.28,0.29,0,1.06,0,2.12,0,3.18a0.21,0.21,0,0,1-.26.27h-4.38a0.21,0.21,0,0,1-.26-0.25q0-5,0-10a0.21,0.21,0,0,1,.26-0.25H303.1a0.24,0.24,0,0,1,.29.29C303.38,15.3,303.39,16,303.39,16.61Z"/></g><g id="JuQ5z0.tif" class="cls-1"><path class="cls-2" d="M809.38,29.33c-0.1.19-.18,0.36-0.27,0.53l-4.58,8.32c0,0.08-.08.16-0.11,0.24H768.23a2.47,2.47,0,0,0-.33,0h-2.42V38.31A3.61,3.61,0,0,0,765.7,38c0.44-.77.88-1.55,1.31-2.33a0.37,0.37,0,0,1,.38-0.21h12.93c2.8,0,5.61.06,8.41,0a10.33,10.33,0,0,0,7.58-3.28,7,7,0,0,0,1.56-2.61,0.28,0.28,0,0,1,.31-0.25h11Z"/><path class="cls-2" d="M765.47,38.36h2.42a2.48,2.48,0,0,1,.33,0h-2.59A0.55,0.55,0,0,1,765.47,38.36Z"/><path class="cls-2" d="M823.48,4.88l-0.69,1.23q-2.06,3.62-4.11,7.25a0.51,0.51,0,0,1-.52.3h-12.4c0.13-.43.3-0.82,0.38-1.23a3.85,3.85,0,0,0-3.72-4.64c-6.33,0-12.66,0-19,0h-0.5c0.06-.13.1-0.22,0.15-0.31,0.43-.77.87-1.53,1.29-2.31a0.46,0.46,0,0,1,.48-0.28h38.63Z"/><path class="cls-2" d="M816.42,17.06l-1.12,2q-1.85,3.24-3.7,6.47a0.47,0.47,0,0,1-.48.27l-8-.07-4,0a0.3,0.3,0,0,1-.34-0.23,3.83,3.83,0,0,0-3.86-2.79H774.47c0-.11.08-0.19,0.12-0.26,0.44-.8.89-1.6,1.33-2.41a0.31,0.31,0,0,1,.37-0.2,3.08,3.08,0,0,0,.53,0c6.73,0,13.46,0,20.18,0A9.16,9.16,0,0,0,802.31,18a5.39,5.39,0,0,0,.9-1,0.4,0.4,0,0,1,.34-0.19L809,17l4.6,0.05,2.59,0Z"/><path class="cls-2" d="M829.53,31.89l-0.22-.1A1.42,1.42,0,0,0,829,29a13.46,13.46,0,0,0-1.9-.07,0.27,0.27,0,0,0-.15.21c0,1.89,0,3.77,0,5.66,0,0.16,0,.24.22,0.24,0.44,0,.88,0,1.32,0a3.68,3.68,0,0,0,1-.23A1.58,1.58,0,0,0,829.53,31.89Zm-2-2.41a3,3,0,0,1,1.68.22,1,1,0,0,1,0,1.64,2.35,2.35,0,0,1-.8.23,6.15,6.15,0,0,1-.85,0v-2.1Zm1.61,4.81a3.78,3.78,0,0,1-1.61.16V32.14a4,4,0,0,1,1.61.13,1,1,0,0,1,.67,1A1,1,0,0,1,829.18,34.29Z"/><path class="cls-2" d="M829.49,10.86l-0.2-.08a1.38,1.38,0,0,0,1-.91A1.42,1.42,0,0,0,829,8a12.85,12.85,0,0,0-1.9-.07,0.26,0.26,0,0,0-.16.2c0,1.89,0,3.79,0,5.69a0.19,0.19,0,0,0,.24.22c0.41,0,.81,0,1.22,0a4.27,4.27,0,0,0,1.13-.24,1.44,1.44,0,0,0,1-1.45A1.46,1.46,0,0,0,829.49,10.86Zm-1.93-2.24a0.22,0.22,0,0,1,.14-0.16,7.3,7.3,0,0,1,1.2.07,0.89,0.89,0,0,1,.76.91,0.91,0.91,0,0,1-.7,1,12.06,12.06,0,0,1-1.41.18C827.56,9.89,827.55,9.26,827.56,8.63Zm1.72,4.59a3.45,3.45,0,0,1-1.73.22c0-.75,0-1.46,0-2.16,0,0,0-.08,0-0.15a4.21,4.21,0,0,1,1.59.12A1.1,1.1,0,0,1,829.29,13.22Z"/><path class="cls-2" d="M838.65,24.34a0.15,0.15,0,0,1-.19.19h-0.4c0-.14,0-0.25,0-0.37,0-.9,0-1.8,0-2.69a0.82,0.82,0,0,0-.62-0.86,1,1,0,0,0-1.15.5,2.8,2.8,0,0,0-.27,1c0,0.7,0,1.41,0,2.11,0,0.23-.08.28-0.29,0.28s-0.31,0-.31-0.29c0-.75,0-1.5,0-2.25a4.13,4.13,0,0,0-.05-0.6,0.81,0.81,0,0,0-.58-0.77,1,1,0,0,0-1.08.33,1.79,1.79,0,0,0-.39,1.2c0,0.7,0,1.39,0,2.09a0.23,0.23,0,0,1-.29.28c-0.21,0-.32,0-0.31-0.28,0-1.22,0-2.43,0-3.65,0-.5,0-0.5.54-0.43v0.69A1.61,1.61,0,0,1,834.6,20a1.28,1.28,0,0,1,1.25.88,5.09,5.09,0,0,1,.33-0.42,1.47,1.47,0,0,1,1.58-.39,1.23,1.23,0,0,1,.83,1.23C838.65,22.34,838.64,23.34,838.65,24.34Z"/><path class="cls-2" d="M844.34,30.8c0-.22-0.17-0.15-0.29-0.16s-0.26,0-.25.17,0,0.3,0,.52l-0.12-.14a1.66,1.66,0,0,0-2.8.25,2.86,2.86,0,0,0,0,2.72,1.63,1.63,0,0,0,2.77.21l0.11-.13a2,2,0,0,1-.52,1.86,2.14,2.14,0,0,1-2.26,0,2.45,2.45,0,0,1,0,.35,0.24,0.24,0,0,0,.21.34c0.24,0,.48.11,0.72,0.15a1.85,1.85,0,0,0,2.4-1.84C844.39,33.66,844.33,32.23,844.34,30.8ZM843.44,34a1.14,1.14,0,0,1-2-.12,6.39,6.39,0,0,1-.3-1.1,6.75,6.75,0,0,1,.3-1.09,1.15,1.15,0,0,1,2-.13A2.52,2.52,0,0,1,843.44,34Z"/><path class="cls-2" d="M879.14,28.48l-0.18,0v2.75a1.71,1.71,0,0,0-2.91.23,3,3,0,0,0,.09,2.79,1.61,1.61,0,0,0,2.71.17l0.16-.19c0,0.22,0,.39,0,0.56a0.18,0.18,0,0,0,.21.22c0.32,0,.33,0,0.33-0.34q0-2.92,0-5.84C879.56,28.45,879.55,28.45,879.14,28.48Zm-0.51,5.59a1.13,1.13,0,0,1-2-.16,6.58,6.58,0,0,1-.29-1.13,6.39,6.39,0,0,1,.3-1.09,1.14,1.14,0,0,1,2-.11A2.54,2.54,0,0,1,878.63,34.07Z"/><path class="cls-2" d="M852,18v2.77l-0.16-.19a1.69,1.69,0,0,0-2.62.18,3,3,0,0,0,.08,3.2,1.62,1.62,0,0,0,2.6,0l0.16-.2v0.75c0.53,0.09.54,0.08,0.54-.39V18H852Zm0,4.31a2.17,2.17,0,0,1-.31,1.21,1.15,1.15,0,0,1-1.12.56,1,1,0,0,1-.92-0.69,2.69,2.69,0,0,1,0-2.15,1.06,1.06,0,0,1,1-.7,1.09,1.09,0,0,1,1.12.63,8.13,8.13,0,0,1,.33,1.12Z"/><path class="cls-2" d="M856.65,13.74c0,0.21,0,.3-0.28.29-0.84,0-1.68,0-2.51,0a0.22,0.22,0,0,1-.27-0.27q0-2.79,0-5.58a0.22,0.22,0,0,1,.28-0.27h2.33c0.44,0,.46,0,0.36.51H854.2v2.15h2.22v0.53h-2.24v0.45c0,0.55,0,1.09,0,1.64a0.21,0.21,0,0,0,.26.26c0.64,0,1.29,0,1.93,0C856.6,13.44,856.65,13.53,856.65,13.74Z"/><path class="cls-2" d="M835.13,13.77c0,0.23-.1.26-0.28,0.25s-0.32,0-.31-0.26c0-.75,0-1.5,0-2.25a3.58,3.58,0,0,0,0-.53,0.92,0.92,0,0,0-.76-0.89,1.16,1.16,0,0,0-1.24.5,2,2,0,0,0-.28,1.11c0,0.69,0,1.37,0,2.06,0,0.24-.11.25-0.29,0.25s-0.29,0-.29-0.25q0-3,0-6.08c0-.22.1-0.24,0.28-0.24s0.31,0,.3.24c0,0.84,0,1.69,0,2.53a1.81,1.81,0,0,1,1.21-.68,1.36,1.36,0,0,1,1.64,1.19,3,3,0,0,1,.05.52C835.13,12.1,835.11,12.94,835.13,13.77Z"/><path class="cls-2" d="M877.61,11.38a2,2,0,0,0-4-.25c-0.05.23-.06,0.47-0.09,0.7s0,0.43.08,0.64a1.93,1.93,0,0,0,1.93,1.67,1.9,1.9,0,0,0,2-1.6A4.2,4.2,0,0,0,877.61,11.38Zm-0.83,1.5a1.21,1.21,0,0,1-1.15.72,1.23,1.23,0,0,1-1.17-.68,2.26,2.26,0,0,1,0-2.16,1.32,1.32,0,0,1,2.38.08,7.34,7.34,0,0,1,.26,1A7.06,7.06,0,0,1,876.78,12.88Z"/><path class="cls-2" d="M855.81,32.19a1.92,1.92,0,0,0-1.88-1.65,1.85,1.85,0,0,0-2,1.33,4.09,4.09,0,0,0-.12,1.43A1.84,1.84,0,0,0,853,35a2,2,0,0,0,2.11-.33,2.36,2.36,0,0,0,.73-1.84C855.86,32.61,855.85,32.4,855.81,32.19ZM855,33.88a1.23,1.23,0,0,1-1.2.72,1.21,1.21,0,0,1-1.16-.74,7.24,7.24,0,0,1-.3-1,7.32,7.32,0,0,1,.3-1,1.21,1.21,0,0,1,1.15-.75,1.23,1.23,0,0,1,1.2.71A2.3,2.3,0,0,1,855,33.88Z"/><path class="cls-2" d="M848.71,31.83a1.22,1.22,0,0,0-1.24-1.25,4.13,4.13,0,0,0-1.21.16c-0.39.1-.44,0.25-0.32,0.6a8.25,8.25,0,0,1,1.29-.25,1,1,0,0,1,.91,1.24,3.4,3.4,0,0,0-.54,0,7.13,7.13,0,0,0-1.39.28,1.29,1.29,0,0,0,.53,2.48,1.7,1.7,0,0,0,1.5-.76c0,0.22,0,.35,0,0.49s0.09,0.22.24,0.21,0.3,0,.29-0.19C848.74,33.84,848.76,32.83,848.71,31.83Zm-0.66,2a1.21,1.21,0,0,1-1.44.77A0.74,0.74,0,0,1,846,34a0.75,0.75,0,0,1,.36-0.86,2.75,2.75,0,0,1,.85-0.26,7.06,7.06,0,0,1,1,0A6.61,6.61,0,0,1,848.05,33.81Z"/><path class="cls-2" d="M846.75,12.16c0-.47,0-0.94,0-1.4a1.2,1.2,0,0,0-1.19-1.19,4.54,4.54,0,0,0-1.27.16c-0.39.09-.44,0.27-0.3,0.63a8.58,8.58,0,0,1,1-.28,1,1,0,0,1,1.22,1.24H845.5a2.85,2.85,0,0,0-1.54.4,1.25,1.25,0,0,0-.55,1.33,1.09,1.09,0,0,0,.85.95,2.56,2.56,0,0,0,.86,0,1.56,1.56,0,0,0,1.1-.71c0,0.17,0,.26,0,0.36s0,0.2,0,.3c0.52,0.07.52,0.07,0.52-.41S846.75,12.63,846.75,12.16Zm-0.69.62a1.2,1.2,0,0,1-1.4.8A0.75,0.75,0,0,1,844,13a0.77,0.77,0,0,1,.29-0.84,1.36,1.36,0,0,1,.55-0.24c0.41-.06.83-0.08,1.34-0.11A7,7,0,0,1,846.06,12.78Z"/><path class="cls-2" d="M886,31.89a1.25,1.25,0,0,0-1.29-1.33,3.67,3.67,0,0,0-1.14.15c-0.42.11-.46,0.22-0.34,0.64a8.8,8.8,0,0,1,1-.28,1,1,0,0,1,1.23.91c0,0.32,0,.33-0.29.33a3.78,3.78,0,0,0-1.68.27,1.31,1.31,0,0,0-.77,1.52,1.26,1.26,0,0,0,1.31,1,1.67,1.67,0,0,0,1.43-.66l0.05,0c0,0.13,0,.26,0,0.39s0.16,0.16.28,0.17,0.25,0,.25-0.17C886,33.87,886,32.88,886,31.89Zm-0.7,2a1.2,1.2,0,0,1-1.4.71,0.74,0.74,0,0,1-.59-0.6,0.77,0.77,0,0,1,.28-0.82,1.07,1.07,0,0,1,.44-0.22c0.45-.07.9-0.1,1.35-0.15l0.09,0.09A5.84,5.84,0,0,1,885.26,33.87Z"/><path class="cls-2" d="M834.57,31.91A1.33,1.33,0,0,0,833,30.55a3.86,3.86,0,0,0-.85.16c-0.47.14-.48,0.17-0.4,0.63a8.21,8.21,0,0,1,1.27-.25,1,1,0,0,1,.92,1.24h-0.6a2.88,2.88,0,0,0-1.56.41,1.26,1.26,0,0,0-.55,1.31,1.12,1.12,0,0,0,.86,1,1.68,1.68,0,0,0,1.79-.47l0.16-.14c0,0.19,0,.33,0,0.47s0.18,0.14.3,0.15,0.24,0,.23-0.16C834.59,33.88,834.62,32.89,834.57,31.91Zm-1.9,2.69a0.78,0.78,0,0,1-.78-0.59,0.77,0.77,0,0,1,.39-0.94,3.26,3.26,0,0,1,.88-0.24,5.55,5.55,0,0,1,.8,0A1.33,1.33,0,0,1,832.67,34.6Z"/><path class="cls-2" d="M839.45,10.88a1.26,1.26,0,0,0-1.27-1.32,3.82,3.82,0,0,0-1.17.15c-0.43.11-.46,0.22-0.35,0.63a7.35,7.35,0,0,1,1.14-.27,1,1,0,0,1,1.06,1.24,4,4,0,0,0-.61,0,6.49,6.49,0,0,0-1.33.28,1.25,1.25,0,0,0-.78,1.5,1.27,1.27,0,0,0,1.33,1,1.7,1.7,0,0,0,1.48-.76c0,0.23,0,.37,0,0.52s0.11,0.19.24,0.18,0.27,0,.27-0.18C839.46,12.86,839.48,11.87,839.45,10.88Zm-1.9,2.71a0.8,0.8,0,0,1-.78-0.56,0.78,0.78,0,0,1,.37-1,2.8,2.8,0,0,1,.85-0.25,6.1,6.1,0,0,1,.88,0A1.34,1.34,0,0,1,837.55,13.59Z"/><path class="cls-2" d="M860.52,12h2c0.81,0,.81,0,0.72-0.81a1.7,1.7,0,0,0-1.4-1.6,1.79,1.79,0,0,0-1.95,1,3.06,3.06,0,0,0-.21,1.78,1.9,1.9,0,0,0,1.94,1.76,3.93,3.93,0,0,0,.91-0.1c0.45-.1.49-0.19,0.36-0.69a2.22,2.22,0,0,1-1.78.18,1.48,1.48,0,0,1-.87-1.56h0.3Zm1-1.93a1.28,1.28,0,0,1,1.17,1.47h-2.43A1.38,1.38,0,0,1,861.48,10Z"/><path class="cls-2" d="M863.19,33a2.51,2.51,0,0,0-.41-1.85,1.78,1.78,0,0,0-3,.51,3.08,3.08,0,0,0-.2,1.71,1.86,1.86,0,0,0,1.78,1.78,4,4,0,0,0,1.12-.1c0.41-.08.47-0.24,0.32-0.66a2.45,2.45,0,0,1-1.79.16,1.53,1.53,0,0,1-.88-1.55h3Zm-1.44-1.89a1.34,1.34,0,0,1,.88,1.33,0.18,0.18,0,0,1-.13.12h-2.28A1.31,1.31,0,0,1,861.75,31.07Z"/><path class="cls-2" d="M848.24,22.45c0-.27,0-0.5,0-0.72A1.71,1.71,0,0,0,846.8,20a1.81,1.81,0,0,0-2,1.29,3.16,3.16,0,0,0-.07,1.72,1.76,1.76,0,0,0,1.52,1.52,4.57,4.57,0,0,0,1.33-.07c0.41-.07.47-0.23,0.31-0.67a2.17,2.17,0,0,1-1.81.17,1.48,1.48,0,0,1-.83-1.55h3Zm-1.86-1.91A1.25,1.25,0,0,1,847.67,22h-2.41A1.35,1.35,0,0,1,846.38,20.54Z"/><path class="cls-2" d="M882.28,13.76c0,0.23-.08.28-0.29,0.27s-0.31,0-.3-0.27c0-.74,0-1.48,0-2.22a4.75,4.75,0,0,0,0-.48,1,1,0,0,0-.7-1,1.17,1.17,0,0,0-1.3.49,2.09,2.09,0,0,0-.3,1.16c0,0.67,0,1.34,0,2,0,0.25-.12.26-0.31,0.26a0.22,0.22,0,0,1-.28-0.26q0-1.94,0-3.89c0-.2.05-0.27,0.25-0.26s0.32,0,.29.24a3.93,3.93,0,0,0,0,.42,1.76,1.76,0,0,1,1.72-.73,1.21,1.21,0,0,1,1.09.94,3.15,3.15,0,0,1,.12.81C882.28,12.12,882.26,12.94,882.28,13.76Z"/><path class="cls-2" d="M839.47,34.87c0,0.26-.21.14-0.34,0.16s-0.22,0-.22-0.2c0-.72,0-1.45,0-2.17a5.26,5.26,0,0,0,0-.63,0.92,0.92,0,0,0-.71-0.91,1.11,1.11,0,0,0-1.26.5,2.51,2.51,0,0,0-.29,1c0,0.72,0,1.44,0,2.17a0.23,0.23,0,0,1-.28.29c-0.22,0-.31-0.05-0.3-0.29,0-1.28,0-2.56,0-3.83,0-.19,0-0.29.26-0.28s0.31,0.06.29,0.29,0,0.26,0,.39a1.8,1.8,0,0,1,1.45-.76,1.33,1.33,0,0,1,1.44,1.34C839.5,32.88,839.47,33.87,839.47,34.87Z"/><path class="cls-2" d="M874.72,34.85c0,0.26-.19.17-0.32,0.18s-0.25,0-.25-0.2c0-.73,0-1.46,0-2.19a5.15,5.15,0,0,0,0-.61,0.94,0.94,0,0,0-.65-0.9,1.1,1.1,0,0,0-1.27.41,2.27,2.27,0,0,0-.33,1c-0.05.75,0,1.5,0,2.24,0,0.24-.08.29-0.3,0.3s-0.29-.08-0.29-0.3c0-1.28,0-2.55,0-3.83,0-.2,0-0.28.26-0.28s0.31,0.06.29,0.28a3.61,3.61,0,0,0,0,.39,1.74,1.74,0,0,1,1.52-.76,1.33,1.33,0,0,1,1.38,1.4C874.74,32.91,874.71,33.88,874.72,34.85Z"/><path class="cls-2" d="M830,24.45a0.25,0.25,0,0,1-.18.07h-2.62A0.18,0.18,0,0,1,827,24.3c0-1.89,0-3.77,0-5.66,0-.28.17-0.22,0.33-0.23a0.21,0.21,0,0,1,.28.26c0,1.65,0,3.3,0,4.94V24h2.13A0.32,0.32,0,0,1,830,24.45Z"/><path class="cls-2" d="M891.91,13a1.16,1.16,0,0,1-.87,1,2.71,2.71,0,0,1-1.69,0c-0.32-.1-0.12-0.37-0.18-0.57a4.79,4.79,0,0,0,.86.2,2,2,0,0,0,.87-0.12,0.64,0.64,0,0,0,.1-1.15,6.32,6.32,0,0,0-.6-0.34,6.55,6.55,0,0,1-.86-0.51,1,1,0,0,1,.09-1.57,2.39,2.39,0,0,1,.89-0.27,2.82,2.82,0,0,1,.79.05c0.43,0.06.48,0.16,0.36,0.58l-1-.15a0.87,0.87,0,0,0-.29,0,0.64,0.64,0,0,0-.59.53,0.63,0.63,0,0,0,.42.61c0.37,0.19.75,0.36,1.1,0.58A1.11,1.11,0,0,1,891.91,13Z"/><path class="cls-2" d="M867.08,13.74a0.23,0.23,0,0,1-.12.17,2.31,2.31,0,0,1-2.75-.72,2.49,2.49,0,0,1,.33-3.06,2.45,2.45,0,0,1,2.39-.41,0.31,0.31,0,0,1,.14.2,0.61,0.61,0,0,1,0,.24,1.5,1.5,0,0,1,0,.16,1.76,1.76,0,0,0-2.23.43,2,2,0,0,0,0,2.13c0.6,0.87,1.43.73,2.31,0.43A3.05,3.05,0,0,1,867.08,13.74Z"/><path class="cls-2" d="M888.12,14a2.26,2.26,0,0,1-2.21-.53,2.55,2.55,0,0,1-.37-2.72,2.15,2.15,0,0,1,2.2-1.15c0.19,0,.38.06,0.57,0.09a0.23,0.23,0,0,1,.22.32,2.24,2.24,0,0,0,0,.32,1.76,1.76,0,0,0-2.25.42,2,2,0,0,0,0,2.15c0.42,0.62,1,.72,2.25.43a0.09,0.09,0,0,1,0,0C888.63,13.86,888.61,13.9,888.12,14Z"/><path class="cls-2" d="M849.7,14.08a1,1,0,0,1-1.2-1.19c0-.81,0-1.62,0-2.43V10.12h-0.71c-0.19,0-.18-0.12-0.18-0.24s0-.26.18-0.25h0.71a6.56,6.56,0,0,0,0-.74,0.38,0.38,0,0,1,.37-0.49l0.21-.06V9.63h0.63c0.43,0,.43,0,0.36.48h-1c0,0.11,0,.19,0,0.28q0,1.19,0,2.38c0,0.06,0,.12,0,0.18a0.58,0.58,0,0,0,.8.6l0.23,0a0.28,0.28,0,0,1,0,.06C850.19,14,850.14,14.06,849.7,14.08Z"/><path class="cls-2" d="M843.59,24.59a0.92,0.92,0,0,1-1.18-.94c0-.89,0-1.78,0-2.67,0-.35,0-0.35-0.34-0.35h-0.26c-0.28,0-.33,0-0.28-0.32a0.26,0.26,0,0,1,.17-0.16,2.64,2.64,0,0,1,.5,0,0.17,0.17,0,0,0,.22-0.21c0-.18,0-0.37,0-0.55a0.35,0.35,0,0,1,.33-0.46l0.26-.07v1.29h1c0,0.09,0,.15,0,0.21,0,0.21,0,.31-0.27.29s-0.47,0-.73,0v1.09c0,0.5,0,1,0,1.51,0,0.74.24,0.94,1,.79H844C844.07,24.52,844.06,24.53,843.59,24.59Z"/><path class="cls-2" d="M869.61,14.08a0.93,0.93,0,0,1-1.17-1c0-.87,0-1.74,0-2.61,0-.1,0-0.21,0-0.34h-0.82c-0.1-.48-0.09-0.49.34-0.49s0.49,0,.49-0.49V9c0-.51,0-0.54.58-0.61V9.63h0.64c0.42,0,.44,0,0.34.48H869c0,0.09,0,.16,0,0.23q0,1.2,0,2.41c0,0.05,0,.11,0,0.16a0.61,0.61,0,0,0,.87.63l0.15,0C870.13,14,870.07,14.06,869.61,14.08Z"/><path class="cls-2" d="M858.51,13.76c0,0.23-.09.28-0.29,0.28s-0.31,0-.3-0.27q0-3,0-6c0-.26.12-0.27,0.32-0.28s0.28,0.08.28,0.29c0,1,0,2,0,3S858.5,12.76,858.51,13.76Z"/><path class="cls-2" d="M850.69,34.76c0,0.23-.08.28-0.29,0.28s-0.31,0-.31-0.27q0-3,0-6a0.23,0.23,0,0,1,.3-0.28c0.2,0,.3,0,0.3.27,0,1,0,2,0,3S850.67,33.77,850.69,34.76Z"/><path class="cls-2" d="M869.71,29.4v5.31a0.33,0.33,0,0,1-.52.3,0.35,0.35,0,0,1-.07-0.26q0-2,0-4V29l0.06,0C869.71,28.87,869.71,28.87,869.71,29.4Z"/><path class="cls-2" d="M842.92,10.14l0,0a1.22,1.22,0,0,0-1.4,1.38c0,0.72,0,1.45,0,2.17a0.33,0.33,0,0,1-.51.3,0.22,0.22,0,0,1-.08-0.17c0-1.34,0-2.68,0-4,0-.23.16-0.18,0.29-0.19s0.27,0,.25.2,0,0.33,0,.53a4.33,4.33,0,0,1,.46-0.51,1.07,1.07,0,0,1,.49-0.24C843,9.51,843,9.54,842.92,10.14Z"/><path class="cls-2" d="M859.05,31.16h-0.12a1.09,1.09,0,0,0-1.26,1,6.34,6.34,0,0,0-.06.95c0,0.56,0,1.13,0,1.69,0,0.22-.11.24-0.28,0.23s-0.32,0-.32-0.22q0-2,0-4c0-.24.14-0.21,0.29-0.22s0.27,0,.25.23,0,0.33,0,.52a2.78,2.78,0,0,1,.38-0.47,1.37,1.37,0,0,1,.57-0.3C859.12,30.51,859.14,30.56,859.05,31.16Z"/><path class="cls-2" d="M873.08,9.87a2.42,2.42,0,0,0,0,.29h-0.17a1.11,1.11,0,0,0-1.27,1,6.75,6.75,0,0,0-.05.92c0,0.54,0,1.07,0,1.61,0,0.21,0,.3-0.28.29S871,14,871,13.75c0-1.29,0-2.57,0-3.86a0.22,0.22,0,0,1,.27-0.28c0.22,0,.3.06,0.28,0.29s0,0.29,0,.44A2.76,2.76,0,0,1,872,9.81a2.46,2.46,0,0,1,.74-0.24C873,9.52,873.11,9.64,873.08,9.87Z"/><path class="cls-2" d="M881.58,34.8c0,0.25-.14.23-0.31,0.23s-0.3,0-.29-0.25c0-.66,0-1.32,0-2s0-1.29,0-1.93c0-.24.11-0.25,0.29-0.25s0.31,0,.3.23Q881.57,32.83,881.58,34.8Z"/><rect class="cls-2" x="840.01" y="20.15" width="0.55" height="4.35"/><path class="cls-2" d="M884.19,13.8c0,0.26-.14.22-0.31,0.23a0.2,0.2,0,0,1-.27-0.25c0-.65,0-1.3,0-2s0-1.3,0-2a0.2,0.2,0,0,1,.27-0.25c0.16,0,.31,0,0.31.23Q884.18,11.83,884.19,13.8Z"/><path class="cls-2" d="M831.22,24.23a0.24,0.24,0,0,1-.3.29,0.23,0.23,0,0,1-.28-0.29c0-1.22,0-2.45,0-3.67,0-.48,0-0.5.56-0.39,0,0.08,0,.17,0,0.25C831.22,21.7,831.21,23,831.22,24.23Z"/><path class="cls-2" d="M865.13,34.27l-0.51,1.49c-0.16.45-.19,0.47-0.72,0.36l0.39-1.39C864.45,34.17,864.49,34.15,865.13,34.27Z"/><path class="cls-2" d="M855.1,23.74l-0.2.6-0.32.95c-0.15.43-.19,0.45-0.71,0.34l0.24-.88c0.07-.26.15-0.52,0.22-0.79a0.24,0.24,0,0,1,.29-0.22C854.76,23.75,854.91,23.74,855.1,23.74Z"/><path class="cls-2" d="M881.33,29.37c-0.36,0-.36,0-0.36-0.36s0-.4.31-0.4,0.35,0,.35.42C881.64,29.19,881.67,29.39,881.33,29.37Z"/><path class="cls-2" d="M840.63,18.53v0.3H840c0-.21,0-0.41,0-0.6a0.19,0.19,0,0,1,.12-0.13C840.53,18,840.63,18.08,840.63,18.53Z"/><path class="cls-2" d="M831.27,18.48v0.35H830.6a4.74,4.74,0,0,0,0-.48c0-.21.06-0.27,0.27-0.27C831.27,18.1,831.27,18.09,831.27,18.48Z"/><path class="cls-2" d="M884.23,8.24a0.2,0.2,0,0,1-.14.11,0.94,0.94,0,0,1-.34,0,0.23,0.23,0,0,1-.16-0.15,5.11,5.11,0,0,1,0-.57l0.14,0C884.23,7.57,884.38,7.74,884.23,8.24Z"/><path class="cls-2" d="M827.57,34.45V32.14a4,4,0,0,1,1.61.13,1,1,0,0,1,.67,1,1,1,0,0,1-.67,1A3.77,3.77,0,0,1,827.57,34.45Z"/><path class="cls-2" d="M827.57,31.57v-2.1a3,3,0,0,1,1.68.22,1,1,0,0,1,0,1.64,2.34,2.34,0,0,1-.8.23A6.12,6.12,0,0,1,827.57,31.57Z"/><path class="cls-2" d="M827.56,13.44c0-.75,0-1.46,0-2.16,0,0,0-.08,0-0.15a4.2,4.2,0,0,1,1.59.12,1.1,1.1,0,0,1,.12,2A3.46,3.46,0,0,1,827.56,13.44Z"/><path class="cls-2" d="M827.56,10.62c0-.73,0-1.36,0-2a0.22,0.22,0,0,1,.14-0.16,7.24,7.24,0,0,1,1.2.07,0.89,0.89,0,0,1,.76.91,0.91,0.91,0,0,1-.7,1A12,12,0,0,1,827.56,10.62Z"/><path class="cls-2" d="M841.13,32.77a6.72,6.72,0,0,1,.3-1.09,1.15,1.15,0,0,1,2-.14,2.52,2.52,0,0,1,0,2.44,1.14,1.14,0,0,1-2-.12A6.34,6.34,0,0,1,841.13,32.77Z"/><path class="cls-2" d="M848.21,32.83a6.65,6.65,0,0,1-.16,1,1.21,1.21,0,0,1-1.44.77A0.74,0.74,0,0,1,846,34a0.75,0.75,0,0,1,.36-0.86,2.75,2.75,0,0,1,.85-0.26A7.09,7.09,0,0,1,848.21,32.83Z"/><path class="cls-2" d="M846.21,11.78a7,7,0,0,1-.15,1,1.2,1.2,0,0,1-1.4.8A0.75,0.75,0,0,1,844,13a0.77,0.77,0,0,1,.29-0.84,1.36,1.36,0,0,1,.55-0.24C845.28,11.83,845.7,11.82,846.21,11.78Z"/><path class="cls-2" d="M834,32.82a1.33,1.33,0,0,1-1.3,1.78,0.78,0.78,0,0,1-.78-0.59,0.77,0.77,0,0,1,.39-0.94,3.25,3.25,0,0,1,.88-0.24A5.49,5.49,0,0,1,834,32.82Z"/><path class="cls-2" d="M838.86,11.82a1.34,1.34,0,0,1-1.32,1.78,0.8,0.8,0,0,1-.78-0.56,0.78,0.78,0,0,1,.37-1,2.81,2.81,0,0,1,.85-0.25A6.14,6.14,0,0,1,838.86,11.82Z"/><path class="cls-2" d="M847.67,22h-2.41a1.35,1.35,0,0,1,1.13-1.46A1.25,1.25,0,0,1,847.67,22Z"/></g><g id="g2993" class="cls-1"><path id="letter_o" data-name="letter o" class="cls-2" d="M428.77,31.73c-4.32,0-8.23-2.75-8.23-8.77s3.9-8.77,8.23-8.77S437,16.95,437,23s-3.9,8.77-8.22,8.77m0-13.84c-3.27,0-3.87,2.94-3.87,5.07S425.5,28,428.77,28s3.87-3,3.87-5.08-0.6-5.07-3.87-5.07"/><path id="letter_r" data-name="letter r" class="cls-2" d="M440,14.63h4.16v2a6.45,6.45,0,0,1,4.58-2.3,4.7,4.7,0,0,1,.57,0v4.11h-0.21c-1.9,0-4,.3-4.65,1.77V31.25H440V14.63h0Z"/><path id="letter_a" data-name="letter a" class="cls-2" d="M460.92,29.8a9.79,9.79,0,0,1-5.5,1.65,4.61,4.61,0,0,1-4.94-4.83c0-3.72,3.42-5.69,10.47-6.48V19.21c0-1.21-.92-1.91-2.61-1.91a5,5,0,0,0-4.06,1.91l-3-1.68q2.32-3.25,7.08-3.25c4.34,0,6.77,1.88,6.77,4.93,0,0,0,12,0,12h-3.88l-0.39-1.46h0Zm-6.13-3.5a2,2,0,0,0,2,2.16,6.08,6.08,0,0,0,4.05-1.75V22.78c-4.09.5-6,1.56-6,3.52"/><path id="letter_n" data-name="letter n" class="cls-2" d="M468.64,15.07l3.62-.5,0.4,2c2-1.5,3.66-2.29,5.7-2.29,3.42,0,5.19,1.81,5.19,5.41V31.24h-4.38V20.42c0-2-.53-3-2.11-3a6.44,6.44,0,0,0-4.1,1.84V31.24h-4.33V15.07h0Z"/><path id="letter_g" data-name="letter g" class="cls-2" d="M494.26,27.68c3.32,0,3.6-3.4,3.6-5.6,0-2.61-1.27-4.71-3.63-4.71-1.57,0-3.33,1.15-3.33,4.89,0,2,.14,5.45,3.36,5.42m7.8-13.11V30.31c0,2.77-.22,7.36-8.13,7.4-3.27,0-6.3-1.29-6.9-4.14l4.31-.7c0.18,0.82.68,1.63,3.13,1.63,2.27,0,3.36-1.08,3.36-3.68V28.88l-0.06-.06a4.36,4.36,0,0,1-4.29,2.42c-3.88,0-6.93-2.69-6.93-8.31s3.15-8.67,6.68-8.68c3.32,0,4.54,1.51,4.83,2.3H498l0.37-2h3.69Z"/><path id="letter_e" data-name="letter e" class="cls-2" d="M512.53,31.55c-4.9,0-7.82-3.15-7.82-8.62s3-8.68,7.75-8.68,7.65,3.06,7.65,8.46c0,0.29,0,.57,0,0.86H509c0,3.15,1.34,4.74,3.91,4.74a4.25,4.25,0,0,0,3.77-2.13l3.2,1.77c-1.41,2.36-3.95,3.59-7.36,3.59m3.28-10.82c0-2.22-1.28-3.53-3.35-3.53s-3.21,1.28-3.39,3.53h6.74Z"/><path id="letter_TM" data-name="letter TM" class="cls-2" d="M527.59,8.32L526,12.49l-1.64-4.17h-1.4v5.5h0.91V9.23h0l1.8,4.59h0.58L528,9.23h0v4.59H529V8.32h-1.39Zm-10.12,0V9.06h1.72v4.77h0.91V9.06h1.72V8.32h-4.35Z"/></g></svg>