<svg id="Layer_1" data-name="Layer 1" xmlns="http://www.w3.org/2000/svg" viewBox="0 0 139.14 158.71"><defs><style>.cls-1{fill:#fff;stroke:#5478ba;}.cls-1,.cls-2{stroke-linecap:round;stroke-linejoin:round;stroke-width:4.11px;}.cls-2{fill:none;stroke:#eb6578;}</style></defs><title>icon-5</title><g id="_Group_" data-name="&lt;Group&gt;"><g id="_Group_2" data-name="&lt;Group&gt;"><circle id="_Path_" data-name="&lt;Path&gt;" class="cls-1" cx="69.57" cy="69.57" r="35.2"/><path id="_Path_2" data-name="&lt;Path&gt;" class="cls-1" d="M-70.37,122.88A51.88,51.88,0,0,0-122.25,71a51.88,51.88,0,0,0-51.88,51.88H-70.37Z" transform="translate(191.82 33.77)"/><circle id="_Path_3" data-name="&lt;Path&gt;" class="cls-2" cx="69.57" cy="69.57" r="35.2"/><path id="_Path_4" data-name="&lt;Path&gt;" class="cls-2" d="M-70.37,122.88A51.88,51.88,0,0,0-122.25,71a51.88,51.88,0,0,0-51.88,51.88H-70.37Z" transform="translate(191.82 33.77)"/></g><g id="_Group_3" data-name="&lt;Group&gt;"><line id="_Path_5" data-name="&lt;Path&gt;" class="cls-1" x1="69.57" y1="15.27" x2="69.57" y2="2.06"/><line id="_Path_6" data-name="&lt;Path&gt;" class="cls-1" x1="42.42" y1="22.54" x2="35.81" y2="11.1"/><line id="_Path_7" data-name="&lt;Path&gt;" class="cls-1" x1="22.54" y1="42.42" x2="11.1" y2="35.81"/><line id="_Path_8" data-name="&lt;Path&gt;" class="cls-1" x1="15.27" y1="69.57" x2="2.06" y2="69.57"/><line id="_Path_9" data-name="&lt;Path&gt;" class="cls-1" x1="22.54" y1="96.72" x2="11.1" y2="103.32"/><line id="_Path_10" data-name="&lt;Path&gt;" class="cls-1" x1="116.59" y1="96.72" x2="128.04" y2="103.32"/><line id="_Path_11" data-name="&lt;Path&gt;" class="cls-1" x1="123.87" y1="69.57" x2="137.08" y2="69.57"/><line id="_Path_12" data-name="&lt;Path&gt;" class="cls-1" x1="116.59" y1="42.42" x2="128.04" y2="35.81"/><line id="_Path_13" data-name="&lt;Path&gt;" class="cls-1" x1="96.72" y1="22.54" x2="103.32" y2="11.1"/><line id="_Path_14" data-name="&lt;Path&gt;" class="cls-2" x1="69.57" y1="15.27" x2="69.57" y2="2.06"/><line id="_Path_15" data-name="&lt;Path&gt;" class="cls-2" x1="42.42" y1="22.54" x2="35.81" y2="11.1"/><line id="_Path_16" data-name="&lt;Path&gt;" class="cls-2" x1="22.54" y1="42.42" x2="11.1" y2="35.81"/><line id="_Path_17" data-name="&lt;Path&gt;" class="cls-2" x1="15.27" y1="69.57" x2="2.06" y2="69.57"/><line id="_Path_18" data-name="&lt;Path&gt;" class="cls-2" x1="22.54" y1="96.72" x2="11.1" y2="103.32"/><line id="_Path_19" data-name="&lt;Path&gt;" class="cls-2" x1="116.59" y1="96.72" x2="128.04" y2="103.32"/><line id="_Path_20" data-name="&lt;Path&gt;" class="cls-2" x1="123.87" y1="69.57" x2="137.08" y2="69.57"/><line id="_Path_21" data-name="&lt;Path&gt;" class="cls-2" x1="116.59" y1="42.42" x2="128.04" y2="35.81"/><line id="_Path_22" data-name="&lt;Path&gt;" class="cls-2" x1="96.72" y1="22.54" x2="103.32" y2="11.1"/></g></g></svg>