<svg id="Layer_1" data-name="Layer 1" xmlns="http://www.w3.org/2000/svg" viewBox="0 0 207.77 164.33"><defs><style>.cls-1{fill:#c079af;}</style></defs><title>contact-icon</title><g id="_Group_" data-name="&lt;Group&gt;"><g id="CT74EM.tif"><g id="_Group_2" data-name="&lt;Group&gt;"><g id="_Group_3" data-name="&lt;Group&gt;"><path id="_Compound_Path_" data-name="&lt;Compound Path&gt;" class="cls-1" d="M1468.13-89.4a47.68,47.68,0,0,1-8.6-.81,57.44,57.44,0,0,1-17.34-6.34,98.85,98.85,0,0,1-21.48-16.21c-3.15-3.06-6.11-6.36-9-9.55l-1.21-1.35a89.68,89.68,0,0,1-6.51-7.83c-3-4.23-5.85-8.65-8.6-12.92l-0.5-.77a70.74,70.74,0,0,1-6.56-13.81,58.08,58.08,0,0,1-3.36-14.63,47.4,47.4,0,0,1,.36-12.65,39.94,39.94,0,0,1,4.7-13.18,41.91,41.91,0,0,1,7.12-9.23c1.13-1.1,2.33-2.09,3.5-3l1.49-1.24c0.33-.28.66-0.58,1-0.88a17.71,17.71,0,0,1,2.91-2.3,23.57,23.57,0,0,1,3.66-1.65c0.46-.18.93-0.36,1.39-0.55l0.46-.19h2.49l0.47,0.21c0.39,0.17.79,0.32,1.19,0.47a14.17,14.17,0,0,1,3.33,1.6,25.69,25.69,0,0,1,7.08,7.78q1,1.62,2,3.23c1.79,2.87,3.64,5.84,5.32,8.87a19.42,19.42,0,0,1,2.44,9.39c0,4.44-2,8.35-6,11.63-1,.86-2.11,1.68-3.18,2.51-1.63,1.26-3.17,2.45-4.62,3.75a6.22,6.22,0,0,0-2,6c0.77,5.08,3.63,9.4,6.49,13.39a100,100,0,0,0,13.15,15c3.49,3.24,7,6.26,11.48,7.61a6.74,6.74,0,0,0,7.23-1.71l0.25-.24a114.92,114.92,0,0,1,8.74-7.74c4-3.12,9-3.55,14.45-1.25,4.53,1.93,8.19,5,11.25,7.72,0.67,0.59,1.35,1.17,2,1.74,1.14,1,2.32,2,3.44,3,2.82,2.74,5.58,5.88,6.71,10.23l0.08,0.31v3.45l-0.14.4a13.54,13.54,0,0,1-3.86,6l-0.91.78c-1.17,1-2.28,1.95-3.3,3A41.86,41.86,0,0,1,1485-93a38.9,38.9,0,0,1-15.39,3.54Zm-55.57-124.13-1.06.41a19.6,19.6,0,0,0-2.91,1.29,13.53,13.53,0,0,0-2.07,1.68c-0.37.34-.74,0.68-1.12,1l-1.55,1.29c-1.14.93-2.21,1.82-3.19,2.77a36.92,36.92,0,0,0-6.26,8.13,34.91,34.91,0,0,0-4.1,11.54,42.47,42.47,0,0,0-.31,11.33,53.09,53.09,0,0,0,3.07,13.37,66.09,66.09,0,0,0,6.07,12.84l0.5,0.77c2.72,4.22,5.53,8.59,8.47,12.73a85.77,85.77,0,0,0,6.16,7.39l1.22,1.36c2.8,3.13,5.7,6.36,8.73,9.3a93.92,93.92,0,0,0,20.39,15.41,52.56,52.56,0,0,0,15.85,5.81,41.67,41.67,0,0,0,9,.7,34,34,0,0,0,13.45-3.08,36.94,36.94,0,0,0,10.74-7.38c1.16-1.16,2.4-2.22,3.59-3.24l0.89-.76a8.32,8.32,0,0,0,2.27-3.53v-1.92c-0.83-2.84-2.71-5.11-5.28-7.61-1-1-2-1.85-3.17-2.79-0.72-.6-1.44-1.21-2.14-1.83-2.77-2.46-6-5.22-9.89-6.86s-6.84-1.4-9.44.6a111.06,111.06,0,0,0-8.36,7.41l-0.25.24a11.69,11.69,0,0,1-12.11,2.87c-5.51-1.65-9.67-5.22-13.45-8.73a105,105,0,0,1-13.81-15.79c-3.21-4.48-6.43-9.38-7.37-15.55a11.18,11.18,0,0,1,3.63-10.41c1.59-1.43,3.28-2.74,4.92-4,1-.79,2.06-1.59,3.06-2.41,2.86-2.35,4.18-4.82,4.18-7.77a14.41,14.41,0,0,0-1.82-7c-1.62-2.92-3.43-5.83-5.19-8.65-0.68-1.09-1.36-2.17-2-3.26a20.81,20.81,0,0,0-5.69-6.31,10.19,10.19,0,0,0-2.2-1l-0.94-.36h-0.49Z" transform="translate(-1297.61 253.73)"/></g></g></g><g id="_Group_4" data-name="&lt;Group&gt;"><path id="_Compound_Path_2" data-name="&lt;Compound Path&gt;" class="cls-1" d="M1386-197.37a2.51,2.51,0,0,1-.88-3.43,2.1,2.1,0,0,1,.41-0.52l-10.46,8.62-10.47-8.62a2.35,2.35,0,0,1,.41.52,2.5,2.5,0,0,1-.87,3.43l-1.51.9,10.85,8.94a2.5,2.5,0,0,0,3.18,0l8.32-6.86c0.36-1,.75-1.94,1.18-2.88Zm66.5-54.07a1.54,1.54,0,0,0-.07-0.42,0.68,0.68,0,0,0-.06-0.2v0c0-.1-0.09-0.2-0.14-0.3a1.36,1.36,0,0,0-.14-0.24,1.82,1.82,0,0,0-.17-0.22s0,0,0,0a1.42,1.42,0,0,0-.21-0.22,1.94,1.94,0,0,0-.37-0.27,1.28,1.28,0,0,0-.25-0.15,1.41,1.41,0,0,0-.26-0.1l-0.16,0-0.17,0a0.63,0.63,0,0,0-.19,0l-0.28,0H1300.11l-0.3,0a0.45,0.45,0,0,0-.16,0l-0.2,0-0.15,0a1.39,1.39,0,0,0-.26.1,1.28,1.28,0,0,0-.25.15,1.52,1.52,0,0,0-.35.26,1.31,1.31,0,0,0-.23.24,1.86,1.86,0,0,0-.21.28,2.17,2.17,0,0,0-.15.26l0,0.1,0,0.07,0,0.06a0.56,0.56,0,0,0,0,.14s0,0.05,0,.07a2.57,2.57,0,0,0-.08.63,2.49,2.49,0,0,0,.91,1.93l4.09,3.37,55.9,46.08,4.1,3.38,10.85,8.94a2.5,2.5,0,0,0,3.18,0l8.32-6.86c0.36-1,.75-1.94,1.18-2.88,0.53-1.17,1.12-2.32,1.76-3.43,0.19-.33.39-0.66,0.59-1a2.49,2.49,0,0,0-2.7.14,1.49,1.49,0,0,0-.28.23l-10.46,8.62-10.47-8.62a1.65,1.65,0,0,0-.25-0.21l-57.26-47.2h136l-35.14,29h0l0.92-.36,1.31-.52,0.93-.38h3.51l0.95,0.41c0.28,0.12.57,0.23,0.86,0.33l31.11-25.64,4.09-3.37a2.52,2.52,0,0,0,.9-2A0.38,0.38,0,0,0,1452.48-251.44Z" transform="translate(-1297.61 253.73)"/></g><path id="_Compound_Path_3" data-name="&lt;Compound Path&gt;" class="cls-1" d="M1452.49-251.33a0.38,0.38,0,0,0,0-.11,1.54,1.54,0,0,0-.07-0.42,0.68,0.68,0,0,0-.06-0.2v0c0-.1-0.09-0.2-0.14-0.3a1.36,1.36,0,0,0-.14-0.24,1.82,1.82,0,0,0-.17-0.22s0,0,0,0a1.42,1.42,0,0,0-.21-0.22,1.94,1.94,0,0,0-.37-0.27,1.28,1.28,0,0,0-.25-0.15,1.41,1.41,0,0,0-.26-0.1l-0.16,0-0.17,0a0.63,0.63,0,0,0-.19,0l-0.28,0a2.47,2.47,0,0,0-1.59.58l-40.5,33.38,0.92-.36,1.31-.52,0.93-.38h3.51l0.95,0.41c0.28,0.12.57,0.23,0.86,0.33l31.11-25.64v81.13h-25a5.21,5.21,0,0,0,0,1.29,16.81,16.81,0,0,0,1,3.71H1450l0.31,0a1.55,1.55,0,0,0,.31-0.06l0.25-.08a2.49,2.49,0,0,0,1.28-1.06,1.12,1.12,0,0,0,.08-0.15,1.69,1.69,0,0,0,.13-0.31,2.35,2.35,0,0,0,.12-0.51,2.7,2.7,0,0,0,0-.28v-89A0.3,0.3,0,0,0,1452.49-251.33Zm-66.7,49.78a1.49,1.49,0,0,0-.28.23l-10.46,8.62-10.47-8.62a1.65,1.65,0,0,0-.25-0.21l-57.26-47.2-5.37-4.42a2.5,2.5,0,0,0-1.59-.58l-0.3,0a0.45,0.45,0,0,0-.16,0l-0.2,0-0.15,0a1.39,1.39,0,0,0-.26.1,1.28,1.28,0,0,0-.25.15,1.52,1.52,0,0,0-.35.26,1.31,1.31,0,0,0-.23.24,1.86,1.86,0,0,0-.21.28,2.17,2.17,0,0,0-.15.26l0,0.1,0,0.07a1.62,1.62,0,0,0-.07.2s0,0.05,0,.07a2.57,2.57,0,0,0-.08.63v88.93a2.11,2.11,0,0,0,0,.35l0,0.15a0,0,0,0,0,0,0,1.19,1.19,0,0,0,0,.2,0,0,0,0,0,0,0,2.13,2.13,0,0,0,.14.35L1298-161a2.43,2.43,0,0,0,.93.9,1.68,1.68,0,0,0,.23.12,2.57,2.57,0,0,0,1,.2h85.32c-0.56-1.65-1-3.32-1.45-5h-81.37v-81.13l55.9,46.08,4.1,3.38,10.85,8.94a2.5,2.5,0,0,0,3.18,0l8.32-6.86c0.36-1,.75-1.94,1.18-2.88,0.53-1.17,1.12-2.32,1.76-3.43,0.19-.33.39-0.66,0.59-1A2.49,2.49,0,0,0,1385.79-201.55Z" transform="translate(-1297.61 253.73)"/><path id="_Path_" data-name="&lt;Path&gt;" class="cls-1" d="M1388.49-201.69c-0.2.33-.4,0.66-0.59,1-0.64,1.11-1.23,2.26-1.76,3.43l-0.16-.1a2.51,2.51,0,0,1-.88-3.43,2.1,2.1,0,0,1,.41-0.52,1.49,1.49,0,0,1,.28-0.23A2.49,2.49,0,0,1,1388.49-201.69Z" transform="translate(-1297.61 253.73)"/><path id="_Path_2" data-name="&lt;Path&gt;" class="cls-1" d="M1452.5-162.3v0a2.7,2.7,0,0,1,0,.28,2.35,2.35,0,0,1-.12.51,1.69,1.69,0,0,1-.13.31,1.12,1.12,0,0,1-.08.15,2.49,2.49,0,0,1-1.28,1.06l-0.25.08a1.55,1.55,0,0,1-.31.06l-0.31,0h0a2.46,2.46,0,0,1-1.27-.35l-7.84-4.65-11.59-6.87c0.74-.57,1.48-1.16,2.2-1.75a19.77,19.77,0,0,0,1.83-1.68l14.18,8.41,3.77,2.24A2.48,2.48,0,0,1,1452.5-162.3Z" transform="translate(-1297.61 253.73)"/><g id="_Group_5" data-name="&lt;Group&gt;"><path id="_Path_3" data-name="&lt;Path&gt;" class="cls-1" d="M1364.12-197.37l-1.51.9-53.39,31.67-7.84,4.65a2.46,2.46,0,0,1-1.27.35,2.57,2.57,0,0,1-1-.2,1.68,1.68,0,0,1-.23-0.12,2.43,2.43,0,0,1-.93-0.9l-0.09-.17a2.13,2.13,0,0,1-.14-0.35,0,0,0,0,1,0,0,1.19,1.19,0,0,1,0-.2,0,0,0,0,1,0,0l0-.15a2.11,2.11,0,0,1,0-.35,2.47,2.47,0,0,1,1.22-2.15l3.78-2.24,55.9-33.16,3.06-1.82a2.48,2.48,0,0,1,2.76.14,1.65,1.65,0,0,1,.25.21,2.35,2.35,0,0,1,.41.52A2.5,2.5,0,0,1,1364.12-197.37Z" transform="translate(-1297.61 253.73)"/></g></g></svg>