<svg id="Layer_1" data-name="Layer 1" xmlns="http://www.w3.org/2000/svg" viewBox="0 0 294.23 35"><defs><style>.cls-1{fill:#8ab03f;}.cls-2{fill:#cdd639;}</style></defs><title>logotype-green</title><g id="_Group_" data-name="&lt;Group&gt;"><path id="_Compound_Path_" data-name="&lt;Compound Path&gt;" class="cls-1" d="M792.5,149.48a8.35,8.35,0,0,1-3.23,2.65,10.25,10.25,0,0,1-4.08.76,8.49,8.49,0,0,1-3.48-.69,7.83,7.83,0,0,1-2.62-1.85,8.09,8.09,0,0,1-1.65-2.74,9.73,9.73,0,0,1-.58-3.37,9.43,9.43,0,0,1,.63-3.5,8.1,8.1,0,0,1,1.76-2.74,7.89,7.89,0,0,1,2.67-1.77,8.82,8.82,0,0,1,3.37-.63,8.4,8.4,0,0,1,3.16.58,6.86,6.86,0,0,1,2.48,1.69,7.59,7.59,0,0,1,1.6,2.71,10.94,10.94,0,0,1,.56,3.64v0.88H779.81a5.76,5.76,0,0,0,.51,2,5.84,5.84,0,0,0,1.14,1.69,5.27,5.27,0,0,0,1.65,1.14,5.05,5.05,0,0,0,2.07.42,6.55,6.55,0,0,0,3-.63,6.87,6.87,0,0,0,2.21-1.86Zm-2.35-6.71a4.73,4.73,0,0,0-1.37-3.37,4.92,4.92,0,0,0-3.58-1.27,5.07,5.07,0,0,0-5.38,4.64h10.33Z" transform="translate(-776.86 -125.9)"/><path id="_Compound_Path_2" data-name="&lt;Compound Path&gt;" class="cls-2" d="M804.83,152.47h-3L795.1,136h3.2l5.13,12.9h0.07l4.89-12.9h3Z" transform="translate(-776.86 -125.9)"/><path id="_Compound_Path_3" data-name="&lt;Compound Path&gt;" class="cls-1" d="M813.34,144.25a9,9,0,0,1,.67-3.51,8.31,8.31,0,0,1,1.83-2.72,8.12,8.12,0,0,1,2.78-1.77,10.08,10.08,0,0,1,7,0,8.12,8.12,0,0,1,2.78,1.77,8.32,8.32,0,0,1,1.83,2.72,9.58,9.58,0,0,1,0,7,8.31,8.31,0,0,1-1.83,2.72,8.12,8.12,0,0,1-2.78,1.78,10.08,10.08,0,0,1-7,0,8.12,8.12,0,0,1-2.78-1.78,8.3,8.3,0,0,1-1.83-2.72A9,9,0,0,1,813.34,144.25Zm3,0a7,7,0,0,0,.4,2.41,5.55,5.55,0,0,0,3,3.23,6.35,6.35,0,0,0,4.81,0,5.56,5.56,0,0,0,3-3.23,7.37,7.37,0,0,0,0-4.81,5.56,5.56,0,0,0-3-3.23,6.35,6.35,0,0,0-4.81,0,5.55,5.55,0,0,0-3,3.23A7,7,0,0,0,816.29,144.25Z" transform="translate(-776.86 -125.9)"/><path id="_Compound_Path_4" data-name="&lt;Compound Path&gt;" class="cls-2" d="M835.41,125.9h2.74v26.57h-2.74V125.9Z" transform="translate(-776.86 -125.9)"/><path id="_Compound_Path_5" data-name="&lt;Compound Path&gt;" class="cls-1" d="M857.94,148.57q0,1.13.07,2.11t0.07,1.79h-2.6q0-.67,0-1.34t0-1.37h-0.07a4.76,4.76,0,0,1-.79,1.16,5.7,5.7,0,0,1-1.21,1,6.49,6.49,0,0,1-1.58.7,6.59,6.59,0,0,1-1.9.26,7.23,7.23,0,0,1-2.79-.49,5.24,5.24,0,0,1-2-1.37,5.54,5.54,0,0,1-1.14-2.13,9.57,9.57,0,0,1-.37-2.72V136h2.74v9.88a5.26,5.26,0,0,0,.91,3.27,3.35,3.35,0,0,0,2.85,1.19,5.35,5.35,0,0,0,2.3-.46,4.08,4.08,0,0,0,1.58-1.3,5.84,5.84,0,0,0,.91-2,10.3,10.3,0,0,0,.3-2.57v-8h2.74v12.55Z" transform="translate(-776.86 -125.9)"/><path id="_Compound_Path_6" data-name="&lt;Compound Path&gt;" class="cls-2" d="M872.14,138.34h-4.85v8.22q0,0.81,0,1.49a3.08,3.08,0,0,0,.28,1.2,1.89,1.89,0,0,0,.74.81,2.72,2.72,0,0,0,1.41.3,5.65,5.65,0,0,0,1.23-.14,5.12,5.12,0,0,0,1.2-.42l0.11,2.49a6.25,6.25,0,0,1-1.56.46,10.2,10.2,0,0,1-1.63.14,6,6,0,0,1-2.35-.39,3.19,3.19,0,0,1-1.37-1.09,4,4,0,0,1-.65-1.74,15.35,15.35,0,0,1-.16-2.3v-9H861V136h3.58v-4.67h2.74V136h4.85v2.32Z" transform="translate(-776.86 -125.9)"/><path id="_Compound_Path_7" data-name="&lt;Compound Path&gt;" class="cls-1" d="M875.16,129.59a2,2,0,0,1,.58-1.41,2,2,0,0,1,2.85,0A2,2,0,1,1,875.16,129.59Zm0.63,6.43h2.74v16.45h-2.74V136Z" transform="translate(-776.86 -125.9)"/><path id="_Compound_Path_8" data-name="&lt;Compound Path&gt;" class="cls-2" d="M883,144.25a9,9,0,0,1,.67-3.51,8.31,8.31,0,0,1,1.83-2.72,8.12,8.12,0,0,1,2.78-1.77,10.08,10.08,0,0,1,7,0,8.12,8.12,0,0,1,2.78,1.77,8.32,8.32,0,0,1,1.83,2.72,9.58,9.58,0,0,1,0,7,8.31,8.31,0,0,1-1.83,2.72,8.12,8.12,0,0,1-2.78,1.78,10.08,10.08,0,0,1-7,0,8.12,8.12,0,0,1-2.78-1.78,8.3,8.3,0,0,1-1.83-2.72A9,9,0,0,1,883,144.25Zm3,0a7,7,0,0,0,.4,2.41,5.55,5.55,0,0,0,3,3.23,6.35,6.35,0,0,0,4.81,0,5.56,5.56,0,0,0,3-3.23,7.37,7.37,0,0,0,0-4.81,5.56,5.56,0,0,0-3-3.23,6.35,6.35,0,0,0-4.81,0,5.55,5.55,0,0,0-3,3.23A7,7,0,0,0,886,144.25Z" transform="translate(-776.86 -125.9)"/><path id="_Compound_Path_9" data-name="&lt;Compound Path&gt;" class="cls-1" d="M904.86,139.93q0-1.12-.07-2.11T904.71,136h2.6q0,0.67,0,1.34t0,1.37h0.07a4.75,4.75,0,0,1,.79-1.16,5.71,5.71,0,0,1,1.21-1,6.48,6.48,0,0,1,1.58-.7,6.57,6.57,0,0,1,1.9-.26,7.23,7.23,0,0,1,2.79.49,5.26,5.26,0,0,1,2,1.37,5.56,5.56,0,0,1,1.14,2.13,9.57,9.57,0,0,1,.37,2.72v10.16h-2.74V142.6a5.26,5.26,0,0,0-.91-3.27,3.36,3.36,0,0,0-2.85-1.2,5.35,5.35,0,0,0-2.3.46,4.09,4.09,0,0,0-1.58,1.3,5.83,5.83,0,0,0-.91,2,10.28,10.28,0,0,0-.3,2.57v8h-2.74V139.93Z" transform="translate(-776.86 -125.9)"/><path id="_Compound_Path_10" data-name="&lt;Compound Path&gt;" class="cls-2" d="M945.87,140.14a5.56,5.56,0,0,0-1.9-1.53,5.27,5.27,0,0,0-2.25-.47,5.86,5.86,0,0,0-2.42.47,4.67,4.67,0,0,0-1.74,1.32,5.87,5.87,0,0,0-1,2,7.79,7.79,0,0,0-.35,2.37,6.87,6.87,0,0,0,.4,2.37,6.28,6.28,0,0,0,1.12,2,5.07,5.07,0,0,0,1.74,1.32,5.35,5.35,0,0,0,2.28.47,4.86,4.86,0,0,0,4.18-2l2,1.93a7.15,7.15,0,0,1-2.81,2,9.69,9.69,0,0,1-6.89,0,7.52,7.52,0,0,1-2.69-1.79,8.26,8.26,0,0,1-1.72-2.74,9.52,9.52,0,0,1-.61-3.48,9.43,9.43,0,0,1,.61-3.44,8.1,8.1,0,0,1,1.74-2.74,8,8,0,0,1,2.69-1.81,8.94,8.94,0,0,1,3.46-.65,9.51,9.51,0,0,1,3.46.63,7.57,7.57,0,0,1,2.86,2Z" transform="translate(-776.86 -125.9)"/><path id="_Compound_Path_11" data-name="&lt;Compound Path&gt;" class="cls-1" d="M950.16,144.25a9,9,0,0,1,.67-3.51,8.31,8.31,0,0,1,1.83-2.72,8.12,8.12,0,0,1,2.78-1.77,10.08,10.08,0,0,1,7,0,8.12,8.12,0,0,1,2.78,1.77,8.32,8.32,0,0,1,1.83,2.72,9.58,9.58,0,0,1,0,7,8.31,8.31,0,0,1-1.83,2.72,8.12,8.12,0,0,1-2.78,1.78,10.08,10.08,0,0,1-7,0,8.12,8.12,0,0,1-2.78-1.78,8.3,8.3,0,0,1-1.83-2.72A9,9,0,0,1,950.16,144.25Zm3,0a7,7,0,0,0,.4,2.41,5.55,5.55,0,0,0,3,3.23,6.35,6.35,0,0,0,4.81,0,5.56,5.56,0,0,0,3-3.23,7.37,7.37,0,0,0,0-4.81,5.56,5.56,0,0,0-3-3.23,6.35,6.35,0,0,0-4.81,0,5.55,5.55,0,0,0-3,3.23A7,7,0,0,0,953.11,144.25Z" transform="translate(-776.86 -125.9)"/><path id="_Compound_Path_12" data-name="&lt;Compound Path&gt;" class="cls-2" d="M971.77,138.13a7.73,7.73,0,0,1,3-1.92,10.53,10.53,0,0,1,3.53-.61q3.65,0,5.27,1.72a7.42,7.42,0,0,1,1.62,5.24v7.06q0,0.7.07,1.46t0.18,1.39h-2.64a5.76,5.76,0,0,1-.16-1.25q0-.69,0-1.21h-0.07a6.44,6.44,0,0,1-2.16,2.07,6.23,6.23,0,0,1-3.25.81,8.59,8.59,0,0,1-2.37-.32,5.92,5.92,0,0,1-1.93-.93,4.59,4.59,0,0,1-1.32-1.53A4.38,4.38,0,0,1,971,148a4.58,4.58,0,0,1,1.05-3.2,6.39,6.39,0,0,1,2.62-1.72,12.89,12.89,0,0,1,3.37-.7q1.81-.14,3.32-0.14h1.05v-0.49a3.36,3.36,0,0,0-1.07-2.71,4.49,4.49,0,0,0-3-.91,8,8,0,0,0-2.62.44,6.29,6.29,0,0,0-2.27,1.35Zm7.94,6.43a9.84,9.84,0,0,0-4.18.74,2.51,2.51,0,0,0-1.55,2.43,2.39,2.39,0,0,0,1,2.2,4.77,4.77,0,0,0,2.58.65,5,5,0,0,0,2.09-.4,4.4,4.4,0,0,0,1.49-1.07,4.63,4.63,0,0,0,.91-1.56,6.4,6.4,0,0,0,.35-1.92v-1.05h-2.74Z" transform="translate(-776.86 -125.9)"/><path id="_Compound_Path_13" data-name="&lt;Compound Path&gt;" class="cls-1" d="M1001.93,140.14a5.56,5.56,0,0,0-1.9-1.53,5.27,5.27,0,0,0-2.25-.47,5.86,5.86,0,0,0-2.42.47,4.67,4.67,0,0,0-1.74,1.32,5.87,5.87,0,0,0-1,2,7.79,7.79,0,0,0-.35,2.37,6.87,6.87,0,0,0,.4,2.37,6.28,6.28,0,0,0,1.12,2,5.07,5.07,0,0,0,1.74,1.32,5.35,5.35,0,0,0,2.28.47,4.86,4.86,0,0,0,4.18-2l2,1.93a7.15,7.15,0,0,1-2.81,2,9.69,9.69,0,0,1-6.89,0,7.52,7.52,0,0,1-2.69-1.79,8.26,8.26,0,0,1-1.72-2.74,9.52,9.52,0,0,1-.61-3.48,9.43,9.43,0,0,1,.61-3.44,8.1,8.1,0,0,1,1.74-2.74,8,8,0,0,1,2.69-1.81,8.94,8.94,0,0,1,3.46-.65,9.51,9.51,0,0,1,3.46.63,7.57,7.57,0,0,1,2.86,2Z" transform="translate(-776.86 -125.9)"/><path id="_Compound_Path_14" data-name="&lt;Compound Path&gt;" class="cls-2" d="M1007.16,125.9h2.74v12.41H1010a4.37,4.37,0,0,1,.77-1,5.79,5.79,0,0,1,1.18-.86,7.2,7.2,0,0,1,1.53-.63,6.37,6.37,0,0,1,1.79-.25,7.23,7.23,0,0,1,2.79.49,5.26,5.26,0,0,1,2,1.37,5.56,5.56,0,0,1,1.14,2.13,9.57,9.57,0,0,1,.37,2.72v10.16h-2.74V142.6a5.26,5.26,0,0,0-.91-3.27,3.36,3.36,0,0,0-2.85-1.2,5.35,5.35,0,0,0-2.3.46,4.09,4.09,0,0,0-1.58,1.3,5.83,5.83,0,0,0-.91,2,10.28,10.28,0,0,0-.3,2.57v8h-2.74V125.9Z" transform="translate(-776.86 -125.9)"/><path id="_Compound_Path_15" data-name="&lt;Compound Path&gt;" class="cls-1" d="M1026.32,129.59a2,2,0,0,1,.58-1.41,2,2,0,0,1,2.85,0A2,2,0,1,1,1026.32,129.59Zm0.63,6.43h2.74v16.45h-2.74V136Z" transform="translate(-776.86 -125.9)"/><path id="_Compound_Path_16" data-name="&lt;Compound Path&gt;" class="cls-2" d="M1035.14,139.93q0-1.12-.07-2.11T1035,136h2.6q0,0.67,0,1.34t0,1.37h0.07a4.75,4.75,0,0,1,.79-1.16,5.71,5.71,0,0,1,1.21-1,6.48,6.48,0,0,1,1.58-.7,6.57,6.57,0,0,1,1.9-.26,7.23,7.23,0,0,1,2.79.49,5.26,5.26,0,0,1,2,1.37,5.56,5.56,0,0,1,1.14,2.13,9.57,9.57,0,0,1,.37,2.72v10.16h-2.74V142.6a5.26,5.26,0,0,0-.91-3.27,3.36,3.36,0,0,0-2.85-1.2,5.35,5.35,0,0,0-2.3.46,4.09,4.09,0,0,0-1.58,1.3,5.83,5.83,0,0,0-.91,2,10.28,10.28,0,0,0-.3,2.57v8h-2.74V139.93Z" transform="translate(-776.86 -125.9)"/><path id="_Compound_Path_17" data-name="&lt;Compound Path&gt;" class="cls-1" d="M1071.09,151.73q0,4.5-2.3,6.84t-6.66,2.34a12.84,12.84,0,0,1-4.38-.7,10.34,10.34,0,0,1-3.71-2.42l2-2.25a9.54,9.54,0,0,0,2.76,2.13,8.45,8.45,0,0,0,6.4.18,4.82,4.82,0,0,0,1.92-1.48,5.63,5.63,0,0,0,1-2.13,10.87,10.87,0,0,0,.28-2.49v-2.11h-0.07a6,6,0,0,1-2.57,2.32,7.57,7.57,0,0,1-3.23.74,9.66,9.66,0,0,1-3.55-.63,8.25,8.25,0,0,1-2.78-1.76,7.77,7.77,0,0,1-1.79-2.67,8.83,8.83,0,0,1-.63-3.37,9.87,9.87,0,0,1,.63-3.62,7.58,7.58,0,0,1,1.78-2.72,7.77,7.77,0,0,1,2.76-1.7,10.28,10.28,0,0,1,3.58-.6,7.54,7.54,0,0,1,1.69.19,7.07,7.07,0,0,1,1.63.6,5.86,5.86,0,0,1,1.42,1,5.54,5.54,0,0,1,1.05,1.42h0.07V136h2.74v15.71Zm-14.41-7.49a5.84,5.84,0,0,0,3.55,5.45,5.59,5.59,0,0,0,2.25.46,6,6,0,0,0,2.5-.49,5.52,5.52,0,0,0,3-3.22,6.64,6.64,0,0,0,.39-2.27,6.81,6.81,0,0,0-.42-2.44,5.65,5.65,0,0,0-1.19-1.92,5.28,5.28,0,0,0-1.86-1.25,6.34,6.34,0,0,0-2.39-.44,5.8,5.8,0,0,0-2.37.47,5.42,5.42,0,0,0-1.83,1.3,6,6,0,0,0-1.18,1.93A6.71,6.71,0,0,0,1056.68,144.25Z" transform="translate(-776.86 -125.9)"/></g></svg>