<svg id="Layer_1" data-name="Layer 1" xmlns="http://www.w3.org/2000/svg" viewBox="0 0 61.1 61.1"><defs><style>.cls-1{fill:#5478ba;}</style></defs><title>logo-blue</title><g id="_Group_" data-name="&lt;Group&gt;"><g id="_Group_2" data-name="&lt;Group&gt;"><path id="_Compound_Path_" data-name="&lt;Compound Path&gt;" class="cls-1" d="M670.34,364.6a30.6,30.6,0,0,0-30.55,30.49v0.12a30.59,30.59,0,0,0,30.55,30.49,1.83,1.83,0,1,0,0-3.66A26.93,26.93,0,0,1,643.52,397H699a1.86,1.86,0,0,0,.34,0,1.83,1.83,0,0,0,1.54-1.81A30.59,30.59,0,0,0,670.34,364.6Zm-18.65,11.21a26.89,26.89,0,0,1,45.48,17.51H643.52A26.75,26.75,0,0,1,651.69,375.81Z" transform="translate(-639.79 -364.6)"/></g></g></svg>